<mxfile host="app.diagrams.net" modified="2022-04-01T05:58:36.956Z" agent="5.0 (Windows NT 10.0; Win64; x64) AppleWebKit/537.36 (KHTML, like Gecko) Chrome/99.0.4844.74 Safari/537.36" etag="b0y4P7d4FIGwVAM1xRe1" version="17.2.5" type="github">
  <diagram id="C5RBs43oDa-KdzZeNtuy" name="Page-1">
    <mxGraphModel dx="2666" dy="1603" grid="1" gridSize="10" guides="1" tooltips="1" connect="1" arrows="1" fold="1" page="1" pageScale="1" pageWidth="1169" pageHeight="827" background="#F1FAEE" math="0" shadow="0">
      <root>
        <mxCell id="WIyWlLk6GJQsqaUBKTNV-0" />
        <mxCell id="WIyWlLk6GJQsqaUBKTNV-1" parent="WIyWlLk6GJQsqaUBKTNV-0" />
        <mxCell id="f973rvLhNH8OjaS4SSxk-0" value="" style="shape=table;html=1;whiteSpace=wrap;startSize=0;container=1;collapsible=0;childLayout=tableLayout;rounded=0;sketch=0;fontColor=#1D3557;strokeColor=#457B9D;fillColor=#A8DADC;" parent="WIyWlLk6GJQsqaUBKTNV-1" vertex="1">
          <mxGeometry x="270" y="-320" width="120" height="280" as="geometry" />
        </mxCell>
        <mxCell id="f973rvLhNH8OjaS4SSxk-1" value="" style="shape=tableRow;horizontal=0;startSize=0;swimlaneHead=0;swimlaneBody=0;top=0;left=0;bottom=0;right=0;collapsible=0;dropTarget=0;fillColor=none;points=[[0,0.5],[1,0.5]];portConstraint=eastwest;rounded=0;sketch=0;fontColor=#1D3557;strokeColor=#457B9D;" parent="f973rvLhNH8OjaS4SSxk-0" vertex="1">
          <mxGeometry width="120" height="40" as="geometry" />
        </mxCell>
        <mxCell id="f973rvLhNH8OjaS4SSxk-2" value="XPakDeleter" style="shape=partialRectangle;html=1;whiteSpace=wrap;connectable=0;fillColor=#fff2cc;top=0;left=0;bottom=0;right=0;overflow=hidden;rounded=0;sketch=0;strokeColor=#d6b656;" parent="f973rvLhNH8OjaS4SSxk-1" vertex="1">
          <mxGeometry width="120" height="40" as="geometry">
            <mxRectangle width="120" height="40" as="alternateBounds" />
          </mxGeometry>
        </mxCell>
        <mxCell id="f973rvLhNH8OjaS4SSxk-5" value="" style="shape=tableRow;horizontal=0;startSize=0;swimlaneHead=0;swimlaneBody=0;top=0;left=0;bottom=0;right=0;collapsible=0;dropTarget=0;fillColor=none;points=[[0,0.5],[1,0.5]];portConstraint=eastwest;rounded=0;sketch=0;fontColor=#1D3557;strokeColor=#457B9D;" parent="f973rvLhNH8OjaS4SSxk-0" vertex="1">
          <mxGeometry y="40" width="120" height="40" as="geometry" />
        </mxCell>
        <mxCell id="f973rvLhNH8OjaS4SSxk-6" value="m_pInput" style="shape=partialRectangle;html=1;whiteSpace=wrap;connectable=0;fillColor=none;top=0;left=0;bottom=0;right=0;overflow=hidden;rounded=0;sketch=0;fontColor=#1D3557;strokeColor=#457B9D;" parent="f973rvLhNH8OjaS4SSxk-5" vertex="1">
          <mxGeometry width="120" height="40" as="geometry">
            <mxRectangle width="120" height="40" as="alternateBounds" />
          </mxGeometry>
        </mxCell>
        <mxCell id="f973rvLhNH8OjaS4SSxk-9" value="" style="shape=tableRow;horizontal=0;startSize=0;swimlaneHead=0;swimlaneBody=0;top=0;left=0;bottom=0;right=0;collapsible=0;dropTarget=0;fillColor=none;points=[[0,0.5],[1,0.5]];portConstraint=eastwest;rounded=0;sketch=0;fontColor=#1D3557;strokeColor=#457B9D;" parent="f973rvLhNH8OjaS4SSxk-0" vertex="1">
          <mxGeometry y="80" width="120" height="40" as="geometry" />
        </mxCell>
        <mxCell id="f973rvLhNH8OjaS4SSxk-10" value="m_Conf" style="shape=partialRectangle;html=1;whiteSpace=wrap;connectable=0;fillColor=none;top=0;left=0;bottom=0;right=0;overflow=hidden;rounded=0;sketch=0;fontColor=#1D3557;strokeColor=#457B9D;" parent="f973rvLhNH8OjaS4SSxk-9" vertex="1">
          <mxGeometry width="120" height="40" as="geometry">
            <mxRectangle width="120" height="40" as="alternateBounds" />
          </mxGeometry>
        </mxCell>
        <mxCell id="f973rvLhNH8OjaS4SSxk-13" style="shape=tableRow;horizontal=0;startSize=0;swimlaneHead=0;swimlaneBody=0;top=0;left=0;bottom=0;right=0;collapsible=0;dropTarget=0;fillColor=none;points=[[0,0.5],[1,0.5]];portConstraint=eastwest;rounded=0;sketch=0;fontColor=#1D3557;strokeColor=#457B9D;" parent="f973rvLhNH8OjaS4SSxk-0" vertex="1">
          <mxGeometry y="120" width="120" height="40" as="geometry" />
        </mxCell>
        <mxCell id="f973rvLhNH8OjaS4SSxk-14" value="m_eState" style="shape=partialRectangle;html=1;whiteSpace=wrap;connectable=0;fillColor=none;top=0;left=0;bottom=0;right=0;overflow=hidden;rounded=0;sketch=0;fontColor=#1D3557;strokeColor=#457B9D;" parent="f973rvLhNH8OjaS4SSxk-13" vertex="1">
          <mxGeometry width="120" height="40" as="geometry">
            <mxRectangle width="120" height="40" as="alternateBounds" />
          </mxGeometry>
        </mxCell>
        <mxCell id="f973rvLhNH8OjaS4SSxk-15" style="shape=tableRow;horizontal=0;startSize=0;swimlaneHead=0;swimlaneBody=0;top=0;left=0;bottom=0;right=0;collapsible=0;dropTarget=0;fillColor=none;points=[[0,0.5],[1,0.5]];portConstraint=eastwest;rounded=0;sketch=0;fontColor=#1D3557;strokeColor=#457B9D;" parent="f973rvLhNH8OjaS4SSxk-0" vertex="1">
          <mxGeometry y="160" width="120" height="40" as="geometry" />
        </mxCell>
        <mxCell id="f973rvLhNH8OjaS4SSxk-16" value="m_dwDeleteEnd" style="shape=partialRectangle;html=1;whiteSpace=wrap;connectable=0;fillColor=none;top=0;left=0;bottom=0;right=0;overflow=hidden;rounded=0;sketch=0;fontColor=#1D3557;strokeColor=#457B9D;" parent="f973rvLhNH8OjaS4SSxk-15" vertex="1">
          <mxGeometry width="120" height="40" as="geometry">
            <mxRectangle width="120" height="40" as="alternateBounds" />
          </mxGeometry>
        </mxCell>
        <mxCell id="f973rvLhNH8OjaS4SSxk-17" style="shape=tableRow;horizontal=0;startSize=0;swimlaneHead=0;swimlaneBody=0;top=0;left=0;bottom=0;right=0;collapsible=0;dropTarget=0;fillColor=none;points=[[0,0.5],[1,0.5]];portConstraint=eastwest;rounded=0;sketch=0;fontColor=#1D3557;strokeColor=#457B9D;" parent="f973rvLhNH8OjaS4SSxk-0" vertex="1">
          <mxGeometry y="200" width="120" height="40" as="geometry" />
        </mxCell>
        <mxCell id="f973rvLhNH8OjaS4SSxk-18" value="m_fProgress" style="shape=partialRectangle;html=1;whiteSpace=wrap;connectable=0;fillColor=none;top=0;left=0;bottom=0;right=0;overflow=hidden;rounded=0;sketch=0;fontColor=#1D3557;strokeColor=#457B9D;" parent="f973rvLhNH8OjaS4SSxk-17" vertex="1">
          <mxGeometry width="120" height="40" as="geometry">
            <mxRectangle width="120" height="40" as="alternateBounds" />
          </mxGeometry>
        </mxCell>
        <mxCell id="f973rvLhNH8OjaS4SSxk-19" style="shape=tableRow;horizontal=0;startSize=0;swimlaneHead=0;swimlaneBody=0;top=0;left=0;bottom=0;right=0;collapsible=0;dropTarget=0;fillColor=none;points=[[0,0.5],[1,0.5]];portConstraint=eastwest;rounded=0;sketch=0;fontColor=#1D3557;strokeColor=#457B9D;" parent="f973rvLhNH8OjaS4SSxk-0" vertex="1">
          <mxGeometry y="240" width="120" height="40" as="geometry" />
        </mxCell>
        <mxCell id="f973rvLhNH8OjaS4SSxk-20" value="m_bErr" style="shape=partialRectangle;html=1;whiteSpace=wrap;connectable=0;fillColor=none;top=0;left=0;bottom=0;right=0;overflow=hidden;rounded=0;sketch=0;fontColor=#1D3557;strokeColor=#457B9D;" parent="f973rvLhNH8OjaS4SSxk-19" vertex="1">
          <mxGeometry width="120" height="40" as="geometry">
            <mxRectangle width="120" height="40" as="alternateBounds" />
          </mxGeometry>
        </mxCell>
        <mxCell id="f973rvLhNH8OjaS4SSxk-21" value="" style="shape=table;html=1;whiteSpace=wrap;startSize=0;container=1;collapsible=0;childLayout=tableLayout;rounded=0;sketch=0;fontColor=#1D3557;strokeColor=#457B9D;fillColor=#A8DADC;" parent="WIyWlLk6GJQsqaUBKTNV-1" vertex="1">
          <mxGeometry x="60" y="-320" width="120" height="320" as="geometry" />
        </mxCell>
        <mxCell id="f973rvLhNH8OjaS4SSxk-22" value="" style="shape=tableRow;horizontal=0;startSize=0;swimlaneHead=0;swimlaneBody=0;top=0;left=0;bottom=0;right=0;collapsible=0;dropTarget=0;fillColor=none;points=[[0,0.5],[1,0.5]];portConstraint=eastwest;rounded=0;sketch=0;fontColor=#1D3557;strokeColor=#457B9D;" parent="f973rvLhNH8OjaS4SSxk-21" vertex="1">
          <mxGeometry width="120" height="40" as="geometry" />
        </mxCell>
        <mxCell id="f973rvLhNH8OjaS4SSxk-23" value="XPakDeleteModule" style="shape=partialRectangle;html=1;whiteSpace=wrap;connectable=0;fillColor=#fff2cc;top=0;left=0;bottom=0;right=0;overflow=hidden;rounded=0;sketch=0;strokeColor=#d6b656;" parent="f973rvLhNH8OjaS4SSxk-22" vertex="1">
          <mxGeometry width="120" height="40" as="geometry">
            <mxRectangle width="120" height="40" as="alternateBounds" />
          </mxGeometry>
        </mxCell>
        <mxCell id="f973rvLhNH8OjaS4SSxk-26" value="" style="shape=tableRow;horizontal=0;startSize=0;swimlaneHead=0;swimlaneBody=0;top=0;left=0;bottom=0;right=0;collapsible=0;dropTarget=0;fillColor=none;points=[[0,0.5],[1,0.5]];portConstraint=eastwest;rounded=0;sketch=0;fontColor=#1D3557;strokeColor=#457B9D;" parent="f973rvLhNH8OjaS4SSxk-21" vertex="1">
          <mxGeometry y="40" width="120" height="40" as="geometry" />
        </mxCell>
        <mxCell id="f973rvLhNH8OjaS4SSxk-27" value="m_bReport" style="shape=partialRectangle;html=1;whiteSpace=wrap;connectable=0;fillColor=none;top=0;left=0;bottom=0;right=0;overflow=hidden;rounded=0;sketch=0;fontColor=#1D3557;strokeColor=#457B9D;" parent="f973rvLhNH8OjaS4SSxk-26" vertex="1">
          <mxGeometry width="120" height="40" as="geometry">
            <mxRectangle width="120" height="40" as="alternateBounds" />
          </mxGeometry>
        </mxCell>
        <mxCell id="f973rvLhNH8OjaS4SSxk-30" value="" style="shape=tableRow;horizontal=0;startSize=0;swimlaneHead=0;swimlaneBody=0;top=0;left=0;bottom=0;right=0;collapsible=0;dropTarget=0;fillColor=none;points=[[0,0.5],[1,0.5]];portConstraint=eastwest;rounded=0;sketch=0;fontColor=#1D3557;strokeColor=#457B9D;" parent="f973rvLhNH8OjaS4SSxk-21" vertex="1">
          <mxGeometry y="80" width="120" height="40" as="geometry" />
        </mxCell>
        <mxCell id="f973rvLhNH8OjaS4SSxk-31" value="m_bPaused" style="shape=partialRectangle;html=1;whiteSpace=wrap;connectable=0;fillColor=none;top=0;left=0;bottom=0;right=0;overflow=hidden;rounded=0;sketch=0;fontColor=#1D3557;strokeColor=#457B9D;" parent="f973rvLhNH8OjaS4SSxk-30" vertex="1">
          <mxGeometry width="120" height="40" as="geometry">
            <mxRectangle width="120" height="40" as="alternateBounds" />
          </mxGeometry>
        </mxCell>
        <mxCell id="f973rvLhNH8OjaS4SSxk-51" style="shape=tableRow;horizontal=0;startSize=0;swimlaneHead=0;swimlaneBody=0;top=0;left=0;bottom=0;right=0;collapsible=0;dropTarget=0;fillColor=none;points=[[0,0.5],[1,0.5]];portConstraint=eastwest;rounded=0;sketch=0;fontColor=#1D3557;strokeColor=#457B9D;" parent="f973rvLhNH8OjaS4SSxk-21" vertex="1">
          <mxGeometry y="120" width="120" height="40" as="geometry" />
        </mxCell>
        <mxCell id="f973rvLhNH8OjaS4SSxk-52" value="m_eStreamError" style="shape=partialRectangle;html=1;whiteSpace=wrap;connectable=0;fillColor=none;top=0;left=0;bottom=0;right=0;overflow=hidden;rounded=0;sketch=0;fontColor=#1D3557;strokeColor=#457B9D;" parent="f973rvLhNH8OjaS4SSxk-51" vertex="1">
          <mxGeometry width="120" height="40" as="geometry">
            <mxRectangle width="120" height="40" as="alternateBounds" />
          </mxGeometry>
        </mxCell>
        <mxCell id="f973rvLhNH8OjaS4SSxk-49" style="shape=tableRow;horizontal=0;startSize=0;swimlaneHead=0;swimlaneBody=0;top=0;left=0;bottom=0;right=0;collapsible=0;dropTarget=0;fillColor=none;points=[[0,0.5],[1,0.5]];portConstraint=eastwest;rounded=0;sketch=0;fontColor=#1D3557;strokeColor=#457B9D;" parent="f973rvLhNH8OjaS4SSxk-21" vertex="1">
          <mxGeometry y="160" width="120" height="40" as="geometry" />
        </mxCell>
        <mxCell id="f973rvLhNH8OjaS4SSxk-50" value="m_AppCode" style="shape=partialRectangle;html=1;whiteSpace=wrap;connectable=0;fillColor=none;top=0;left=0;bottom=0;right=0;overflow=hidden;rounded=0;sketch=0;fontColor=#1D3557;strokeColor=#457B9D;" parent="f973rvLhNH8OjaS4SSxk-49" vertex="1">
          <mxGeometry width="120" height="40" as="geometry">
            <mxRectangle width="120" height="40" as="alternateBounds" />
          </mxGeometry>
        </mxCell>
        <mxCell id="f973rvLhNH8OjaS4SSxk-47" style="shape=tableRow;horizontal=0;startSize=0;swimlaneHead=0;swimlaneBody=0;top=0;left=0;bottom=0;right=0;collapsible=0;dropTarget=0;fillColor=none;points=[[0,0.5],[1,0.5]];portConstraint=eastwest;rounded=0;sketch=0;fontColor=#1D3557;strokeColor=#457B9D;" parent="f973rvLhNH8OjaS4SSxk-21" vertex="1">
          <mxGeometry y="200" width="120" height="40" as="geometry" />
        </mxCell>
        <mxCell id="f973rvLhNH8OjaS4SSxk-48" value="m_StreamConf" style="shape=partialRectangle;html=1;whiteSpace=wrap;connectable=0;fillColor=none;top=0;left=0;bottom=0;right=0;overflow=hidden;rounded=0;sketch=0;fontColor=#1D3557;strokeColor=#457B9D;" parent="f973rvLhNH8OjaS4SSxk-47" vertex="1">
          <mxGeometry width="120" height="40" as="geometry">
            <mxRectangle width="120" height="40" as="alternateBounds" />
          </mxGeometry>
        </mxCell>
        <mxCell id="f973rvLhNH8OjaS4SSxk-45" style="shape=tableRow;horizontal=0;startSize=0;swimlaneHead=0;swimlaneBody=0;top=0;left=0;bottom=0;right=0;collapsible=0;dropTarget=0;fillColor=none;points=[[0,0.5],[1,0.5]];portConstraint=eastwest;rounded=0;sketch=0;fontColor=#1D3557;strokeColor=#457B9D;" parent="f973rvLhNH8OjaS4SSxk-21" vertex="1">
          <mxGeometry y="240" width="120" height="40" as="geometry" />
        </mxCell>
        <mxCell id="f973rvLhNH8OjaS4SSxk-46" value="m_pPakDeleter" style="shape=partialRectangle;html=1;whiteSpace=wrap;connectable=0;fillColor=none;top=0;left=0;bottom=0;right=0;overflow=hidden;rounded=0;sketch=0;fontColor=#1D3557;strokeColor=#457B9D;" parent="f973rvLhNH8OjaS4SSxk-45" vertex="1">
          <mxGeometry width="120" height="40" as="geometry">
            <mxRectangle width="120" height="40" as="alternateBounds" />
          </mxGeometry>
        </mxCell>
        <mxCell id="f973rvLhNH8OjaS4SSxk-43" style="shape=tableRow;horizontal=0;startSize=0;swimlaneHead=0;swimlaneBody=0;top=0;left=0;bottom=0;right=0;collapsible=0;dropTarget=0;fillColor=none;points=[[0,0.5],[1,0.5]];portConstraint=eastwest;rounded=0;sketch=0;fontColor=#1D3557;strokeColor=#457B9D;" parent="f973rvLhNH8OjaS4SSxk-21" vertex="1">
          <mxGeometry y="280" width="120" height="40" as="geometry" />
        </mxCell>
        <mxCell id="f973rvLhNH8OjaS4SSxk-44" value="m_pInput" style="shape=partialRectangle;html=1;whiteSpace=wrap;connectable=0;fillColor=none;top=0;left=0;bottom=0;right=0;overflow=hidden;rounded=0;sketch=0;fontColor=#1D3557;strokeColor=#457B9D;" parent="f973rvLhNH8OjaS4SSxk-43" vertex="1">
          <mxGeometry width="120" height="40" as="geometry">
            <mxRectangle width="120" height="40" as="alternateBounds" />
          </mxGeometry>
        </mxCell>
        <mxCell id="f973rvLhNH8OjaS4SSxk-186" style="edgeStyle=orthogonalEdgeStyle;curved=0;rounded=1;sketch=0;orthogonalLoop=1;jettySize=auto;html=1;exitX=1;exitY=0.5;exitDx=0;exitDy=0;fontColor=#1D3557;strokeColor=#457B9D;fillColor=#A8DADC;" parent="f973rvLhNH8OjaS4SSxk-21" source="f973rvLhNH8OjaS4SSxk-43" target="f973rvLhNH8OjaS4SSxk-43" edge="1">
          <mxGeometry relative="1" as="geometry" />
        </mxCell>
        <mxCell id="f973rvLhNH8OjaS4SSxk-54" style="edgeStyle=orthogonalEdgeStyle;curved=0;rounded=1;sketch=0;orthogonalLoop=1;jettySize=auto;html=1;exitX=1;exitY=0.5;exitDx=0;exitDy=0;entryX=0;entryY=0.5;entryDx=0;entryDy=0;fontColor=#1D3557;strokeColor=#457B9D;fillColor=#A8DADC;" parent="WIyWlLk6GJQsqaUBKTNV-1" source="f973rvLhNH8OjaS4SSxk-45" target="f973rvLhNH8OjaS4SSxk-1" edge="1">
          <mxGeometry relative="1" as="geometry" />
        </mxCell>
        <mxCell id="f973rvLhNH8OjaS4SSxk-72" value="" style="shape=table;html=1;whiteSpace=wrap;startSize=0;container=1;collapsible=0;childLayout=tableLayout;rounded=0;sketch=0;fontColor=#1D3557;strokeColor=#457B9D;fillColor=#A8DADC;" parent="WIyWlLk6GJQsqaUBKTNV-1" vertex="1">
          <mxGeometry x="1080" y="10" width="180" height="480" as="geometry" />
        </mxCell>
        <mxCell id="f973rvLhNH8OjaS4SSxk-73" value="" style="shape=tableRow;horizontal=0;startSize=0;swimlaneHead=0;swimlaneBody=0;top=0;left=0;bottom=0;right=0;collapsible=0;dropTarget=0;fillColor=none;points=[[0,0.5],[1,0.5]];portConstraint=eastwest;rounded=0;sketch=0;fontColor=#1D3557;strokeColor=#457B9D;" parent="f973rvLhNH8OjaS4SSxk-72" vertex="1">
          <mxGeometry width="180" height="40" as="geometry" />
        </mxCell>
        <mxCell id="f973rvLhNH8OjaS4SSxk-74" value="XStreamDownloaderModule" style="shape=partialRectangle;html=1;whiteSpace=wrap;connectable=0;fillColor=#fff2cc;top=0;left=0;bottom=0;right=0;overflow=hidden;rounded=0;sketch=0;strokeColor=#d6b656;" parent="f973rvLhNH8OjaS4SSxk-73" vertex="1">
          <mxGeometry width="180" height="40" as="geometry">
            <mxRectangle width="180" height="40" as="alternateBounds" />
          </mxGeometry>
        </mxCell>
        <mxCell id="f973rvLhNH8OjaS4SSxk-77" value="" style="shape=tableRow;horizontal=0;startSize=0;swimlaneHead=0;swimlaneBody=0;top=0;left=0;bottom=0;right=0;collapsible=0;dropTarget=0;fillColor=none;points=[[0,0.5],[1,0.5]];portConstraint=eastwest;rounded=0;sketch=0;fontColor=#1D3557;strokeColor=#457B9D;" parent="f973rvLhNH8OjaS4SSxk-72" vertex="1">
          <mxGeometry y="40" width="180" height="40" as="geometry" />
        </mxCell>
        <mxCell id="f973rvLhNH8OjaS4SSxk-78" value="m_bReport" style="shape=partialRectangle;html=1;whiteSpace=wrap;connectable=0;fillColor=none;top=0;left=0;bottom=0;right=0;overflow=hidden;rounded=0;sketch=0;fontColor=#1D3557;strokeColor=#457B9D;" parent="f973rvLhNH8OjaS4SSxk-77" vertex="1">
          <mxGeometry width="180" height="40" as="geometry">
            <mxRectangle width="180" height="40" as="alternateBounds" />
          </mxGeometry>
        </mxCell>
        <mxCell id="f973rvLhNH8OjaS4SSxk-81" value="" style="shape=tableRow;horizontal=0;startSize=0;swimlaneHead=0;swimlaneBody=0;top=0;left=0;bottom=0;right=0;collapsible=0;dropTarget=0;fillColor=none;points=[[0,0.5],[1,0.5]];portConstraint=eastwest;rounded=0;sketch=0;fontColor=#1D3557;strokeColor=#457B9D;" parent="f973rvLhNH8OjaS4SSxk-72" vertex="1">
          <mxGeometry y="80" width="180" height="40" as="geometry" />
        </mxCell>
        <mxCell id="f973rvLhNH8OjaS4SSxk-82" value="m_bPaused" style="shape=partialRectangle;html=1;whiteSpace=wrap;connectable=0;fillColor=none;top=0;left=0;bottom=0;right=0;overflow=hidden;rounded=0;sketch=0;fontColor=#1D3557;strokeColor=#457B9D;" parent="f973rvLhNH8OjaS4SSxk-81" vertex="1">
          <mxGeometry width="180" height="40" as="geometry">
            <mxRectangle width="180" height="40" as="alternateBounds" />
          </mxGeometry>
        </mxCell>
        <mxCell id="f973rvLhNH8OjaS4SSxk-85" style="shape=tableRow;horizontal=0;startSize=0;swimlaneHead=0;swimlaneBody=0;top=0;left=0;bottom=0;right=0;collapsible=0;dropTarget=0;fillColor=none;points=[[0,0.5],[1,0.5]];portConstraint=eastwest;rounded=0;sketch=0;fontColor=#1D3557;strokeColor=#457B9D;" parent="f973rvLhNH8OjaS4SSxk-72" vertex="1">
          <mxGeometry y="120" width="180" height="40" as="geometry" />
        </mxCell>
        <mxCell id="f973rvLhNH8OjaS4SSxk-86" value="m_AppCode" style="shape=partialRectangle;html=1;whiteSpace=wrap;connectable=0;fillColor=none;top=0;left=0;bottom=0;right=0;overflow=hidden;rounded=0;sketch=0;fontColor=#1D3557;strokeColor=#457B9D;" parent="f973rvLhNH8OjaS4SSxk-85" vertex="1">
          <mxGeometry width="180" height="40" as="geometry">
            <mxRectangle width="180" height="40" as="alternateBounds" />
          </mxGeometry>
        </mxCell>
        <mxCell id="f973rvLhNH8OjaS4SSxk-87" style="shape=tableRow;horizontal=0;startSize=0;swimlaneHead=0;swimlaneBody=0;top=0;left=0;bottom=0;right=0;collapsible=0;dropTarget=0;fillColor=none;points=[[0,0.5],[1,0.5]];portConstraint=eastwest;rounded=0;sketch=0;fontColor=#1D3557;strokeColor=#457B9D;" parent="f973rvLhNH8OjaS4SSxk-72" vertex="1">
          <mxGeometry y="160" width="180" height="40" as="geometry" />
        </mxCell>
        <mxCell id="f973rvLhNH8OjaS4SSxk-88" value="m_StreamConf" style="shape=partialRectangle;html=1;whiteSpace=wrap;connectable=0;fillColor=none;top=0;left=0;bottom=0;right=0;overflow=hidden;rounded=0;sketch=0;fontColor=#1D3557;strokeColor=#457B9D;" parent="f973rvLhNH8OjaS4SSxk-87" vertex="1">
          <mxGeometry width="180" height="40" as="geometry">
            <mxRectangle width="180" height="40" as="alternateBounds" />
          </mxGeometry>
        </mxCell>
        <mxCell id="f973rvLhNH8OjaS4SSxk-89" style="shape=tableRow;horizontal=0;startSize=0;swimlaneHead=0;swimlaneBody=0;top=0;left=0;bottom=0;right=0;collapsible=0;dropTarget=0;fillColor=none;points=[[0,0.5],[1,0.5]];portConstraint=eastwest;rounded=0;sketch=0;fontColor=#1D3557;strokeColor=#457B9D;" parent="f973rvLhNH8OjaS4SSxk-72" vertex="1">
          <mxGeometry y="200" width="180" height="40" as="geometry" />
        </mxCell>
        <mxCell id="f973rvLhNH8OjaS4SSxk-90" value="m_LimitSpeedInfo" style="shape=partialRectangle;html=1;whiteSpace=wrap;connectable=0;fillColor=none;top=0;left=0;bottom=0;right=0;overflow=hidden;rounded=0;sketch=0;fontColor=#1D3557;strokeColor=#457B9D;" parent="f973rvLhNH8OjaS4SSxk-89" vertex="1">
          <mxGeometry width="180" height="40" as="geometry">
            <mxRectangle width="180" height="40" as="alternateBounds" />
          </mxGeometry>
        </mxCell>
        <mxCell id="f973rvLhNH8OjaS4SSxk-91" style="shape=tableRow;horizontal=0;startSize=0;swimlaneHead=0;swimlaneBody=0;top=0;left=0;bottom=0;right=0;collapsible=0;dropTarget=0;fillColor=none;points=[[0,0.5],[1,0.5]];portConstraint=eastwest;rounded=0;sketch=0;fontColor=#1D3557;strokeColor=#457B9D;" parent="f973rvLhNH8OjaS4SSxk-72" vertex="1">
          <mxGeometry y="240" width="180" height="40" as="geometry" />
        </mxCell>
        <mxCell id="f973rvLhNH8OjaS4SSxk-92" value="m_nFileSystemError" style="shape=partialRectangle;html=1;whiteSpace=wrap;connectable=0;fillColor=none;top=0;left=0;bottom=0;right=0;overflow=hidden;rounded=0;sketch=0;fontColor=#1D3557;strokeColor=#457B9D;" parent="f973rvLhNH8OjaS4SSxk-91" vertex="1">
          <mxGeometry width="180" height="40" as="geometry">
            <mxRectangle width="180" height="40" as="alternateBounds" />
          </mxGeometry>
        </mxCell>
        <mxCell id="f973rvLhNH8OjaS4SSxk-93" style="shape=tableRow;horizontal=0;startSize=0;swimlaneHead=0;swimlaneBody=0;top=0;left=0;bottom=0;right=0;collapsible=0;dropTarget=0;fillColor=none;points=[[0,0.5],[1,0.5]];portConstraint=eastwest;rounded=0;sketch=0;fontColor=#1D3557;strokeColor=#457B9D;" parent="f973rvLhNH8OjaS4SSxk-72" vertex="1">
          <mxGeometry y="280" width="180" height="40" as="geometry" />
        </mxCell>
        <mxCell id="f973rvLhNH8OjaS4SSxk-94" value="m_nCount" style="shape=partialRectangle;html=1;whiteSpace=wrap;connectable=0;fillColor=none;top=0;left=0;bottom=0;right=0;overflow=hidden;rounded=0;sketch=0;fontColor=#1D3557;strokeColor=#457B9D;" parent="f973rvLhNH8OjaS4SSxk-93" vertex="1">
          <mxGeometry width="180" height="40" as="geometry">
            <mxRectangle width="180" height="40" as="alternateBounds" />
          </mxGeometry>
        </mxCell>
        <mxCell id="f973rvLhNH8OjaS4SSxk-95" style="shape=tableRow;horizontal=0;startSize=0;swimlaneHead=0;swimlaneBody=0;top=0;left=0;bottom=0;right=0;collapsible=0;dropTarget=0;fillColor=none;points=[[0,0.5],[1,0.5]];portConstraint=eastwest;rounded=0;sketch=0;fontColor=#1D3557;strokeColor=#457B9D;" parent="f973rvLhNH8OjaS4SSxk-72" vertex="1">
          <mxGeometry y="320" width="180" height="40" as="geometry" />
        </mxCell>
        <mxCell id="f973rvLhNH8OjaS4SSxk-96" value="m_dwAbortTime" style="shape=partialRectangle;html=1;whiteSpace=wrap;connectable=0;fillColor=none;top=0;left=0;bottom=0;right=0;overflow=hidden;rounded=0;sketch=0;fontColor=#1D3557;strokeColor=#457B9D;" parent="f973rvLhNH8OjaS4SSxk-95" vertex="1">
          <mxGeometry width="180" height="40" as="geometry">
            <mxRectangle width="180" height="40" as="alternateBounds" />
          </mxGeometry>
        </mxCell>
        <mxCell id="f973rvLhNH8OjaS4SSxk-97" style="shape=tableRow;horizontal=0;startSize=0;swimlaneHead=0;swimlaneBody=0;top=0;left=0;bottom=0;right=0;collapsible=0;dropTarget=0;fillColor=none;points=[[0,0.5],[1,0.5]];portConstraint=eastwest;rounded=0;sketch=0;fontColor=#1D3557;strokeColor=#457B9D;" parent="f973rvLhNH8OjaS4SSxk-72" vertex="1">
          <mxGeometry y="360" width="180" height="40" as="geometry" />
        </mxCell>
        <mxCell id="f973rvLhNH8OjaS4SSxk-98" value="m_pStreamDownloaderProxy" style="shape=partialRectangle;html=1;whiteSpace=wrap;connectable=0;fillColor=none;top=0;left=0;bottom=0;right=0;overflow=hidden;rounded=0;sketch=0;fontColor=#1D3557;strokeColor=#457B9D;" parent="f973rvLhNH8OjaS4SSxk-97" vertex="1">
          <mxGeometry width="180" height="40" as="geometry">
            <mxRectangle width="180" height="40" as="alternateBounds" />
          </mxGeometry>
        </mxCell>
        <mxCell id="f973rvLhNH8OjaS4SSxk-103" style="shape=tableRow;horizontal=0;startSize=0;swimlaneHead=0;swimlaneBody=0;top=0;left=0;bottom=0;right=0;collapsible=0;dropTarget=0;fillColor=none;points=[[0,0.5],[1,0.5]];portConstraint=eastwest;rounded=0;sketch=0;fontColor=#1D3557;strokeColor=#457B9D;" parent="f973rvLhNH8OjaS4SSxk-72" vertex="1">
          <mxGeometry y="400" width="180" height="40" as="geometry" />
        </mxCell>
        <mxCell id="f973rvLhNH8OjaS4SSxk-104" value="m_pThreadInput" style="shape=partialRectangle;html=1;whiteSpace=wrap;connectable=0;fillColor=none;top=0;left=0;bottom=0;right=0;overflow=hidden;rounded=0;sketch=0;fontColor=#1D3557;strokeColor=#457B9D;" parent="f973rvLhNH8OjaS4SSxk-103" vertex="1">
          <mxGeometry width="180" height="40" as="geometry">
            <mxRectangle width="180" height="40" as="alternateBounds" />
          </mxGeometry>
        </mxCell>
        <mxCell id="f973rvLhNH8OjaS4SSxk-101" style="shape=tableRow;horizontal=0;startSize=0;swimlaneHead=0;swimlaneBody=0;top=0;left=0;bottom=0;right=0;collapsible=0;dropTarget=0;fillColor=none;points=[[0,0.5],[1,0.5]];portConstraint=eastwest;rounded=0;sketch=0;fontColor=#1D3557;strokeColor=#457B9D;" parent="f973rvLhNH8OjaS4SSxk-72" vertex="1">
          <mxGeometry y="440" width="180" height="40" as="geometry" />
        </mxCell>
        <mxCell id="f973rvLhNH8OjaS4SSxk-102" value="m_OutPutCof" style="shape=partialRectangle;html=1;whiteSpace=wrap;connectable=0;fillColor=none;top=0;left=0;bottom=0;right=0;overflow=hidden;rounded=0;sketch=0;fontColor=#1D3557;strokeColor=#457B9D;" parent="f973rvLhNH8OjaS4SSxk-101" vertex="1">
          <mxGeometry width="180" height="40" as="geometry">
            <mxRectangle width="180" height="40" as="alternateBounds" />
          </mxGeometry>
        </mxCell>
        <mxCell id="f973rvLhNH8OjaS4SSxk-105" value="" style="shape=table;html=1;whiteSpace=wrap;startSize=0;container=1;collapsible=0;childLayout=tableLayout;rounded=0;sketch=0;fontColor=#1D3557;strokeColor=#457B9D;fillColor=#A8DADC;" parent="WIyWlLk6GJQsqaUBKTNV-1" vertex="1">
          <mxGeometry x="1360" y="10" width="160" height="280" as="geometry" />
        </mxCell>
        <mxCell id="f973rvLhNH8OjaS4SSxk-106" value="" style="shape=tableRow;horizontal=0;startSize=0;swimlaneHead=0;swimlaneBody=0;top=0;left=0;bottom=0;right=0;collapsible=0;dropTarget=0;fillColor=#fff2cc;points=[[0,0.5],[1,0.5]];portConstraint=eastwest;rounded=0;sketch=0;strokeColor=#d6b656;" parent="f973rvLhNH8OjaS4SSxk-105" vertex="1">
          <mxGeometry width="160" height="40" as="geometry" />
        </mxCell>
        <mxCell id="f973rvLhNH8OjaS4SSxk-107" value="XStramDownloaderProxy" style="shape=partialRectangle;html=1;whiteSpace=wrap;connectable=0;fillColor=none;top=0;left=0;bottom=0;right=0;overflow=hidden;rounded=0;sketch=0;fontColor=#1D3557;strokeColor=#457B9D;" parent="f973rvLhNH8OjaS4SSxk-106" vertex="1">
          <mxGeometry width="160" height="40" as="geometry">
            <mxRectangle width="160" height="40" as="alternateBounds" />
          </mxGeometry>
        </mxCell>
        <mxCell id="f973rvLhNH8OjaS4SSxk-110" value="" style="shape=tableRow;horizontal=0;startSize=0;swimlaneHead=0;swimlaneBody=0;top=0;left=0;bottom=0;right=0;collapsible=0;dropTarget=0;fillColor=none;points=[[0,0.5],[1,0.5]];portConstraint=eastwest;rounded=0;sketch=0;fontColor=#1D3557;strokeColor=#457B9D;" parent="f973rvLhNH8OjaS4SSxk-105" vertex="1">
          <mxGeometry y="40" width="160" height="40" as="geometry" />
        </mxCell>
        <mxCell id="f973rvLhNH8OjaS4SSxk-111" value="m_pInput" style="shape=partialRectangle;html=1;whiteSpace=wrap;connectable=0;fillColor=none;top=0;left=0;bottom=0;right=0;overflow=hidden;rounded=0;sketch=0;fontColor=#1D3557;strokeColor=#457B9D;" parent="f973rvLhNH8OjaS4SSxk-110" vertex="1">
          <mxGeometry width="160" height="40" as="geometry">
            <mxRectangle width="160" height="40" as="alternateBounds" />
          </mxGeometry>
        </mxCell>
        <mxCell id="f973rvLhNH8OjaS4SSxk-114" value="" style="shape=tableRow;horizontal=0;startSize=0;swimlaneHead=0;swimlaneBody=0;top=0;left=0;bottom=0;right=0;collapsible=0;dropTarget=0;fillColor=none;points=[[0,0.5],[1,0.5]];portConstraint=eastwest;rounded=0;sketch=0;fontColor=#1D3557;strokeColor=#457B9D;" parent="f973rvLhNH8OjaS4SSxk-105" vertex="1">
          <mxGeometry y="80" width="160" height="40" as="geometry" />
        </mxCell>
        <mxCell id="f973rvLhNH8OjaS4SSxk-115" value="m_Conf" style="shape=partialRectangle;html=1;whiteSpace=wrap;connectable=0;fillColor=none;top=0;left=0;bottom=0;right=0;overflow=hidden;rounded=0;sketch=0;fontColor=#1D3557;strokeColor=#457B9D;" parent="f973rvLhNH8OjaS4SSxk-114" vertex="1">
          <mxGeometry width="160" height="40" as="geometry">
            <mxRectangle width="160" height="40" as="alternateBounds" />
          </mxGeometry>
        </mxCell>
        <mxCell id="f973rvLhNH8OjaS4SSxk-118" style="shape=tableRow;horizontal=0;startSize=0;swimlaneHead=0;swimlaneBody=0;top=0;left=0;bottom=0;right=0;collapsible=0;dropTarget=0;fillColor=none;points=[[0,0.5],[1,0.5]];portConstraint=eastwest;rounded=0;sketch=0;fontColor=#1D3557;strokeColor=#457B9D;" parent="f973rvLhNH8OjaS4SSxk-105" vertex="1">
          <mxGeometry y="120" width="160" height="40" as="geometry" />
        </mxCell>
        <mxCell id="f973rvLhNH8OjaS4SSxk-119" value="m_eState" style="shape=partialRectangle;html=1;whiteSpace=wrap;connectable=0;fillColor=none;top=0;left=0;bottom=0;right=0;overflow=hidden;rounded=0;sketch=0;fontColor=#1D3557;strokeColor=#457B9D;" parent="f973rvLhNH8OjaS4SSxk-118" vertex="1">
          <mxGeometry width="160" height="40" as="geometry">
            <mxRectangle width="160" height="40" as="alternateBounds" />
          </mxGeometry>
        </mxCell>
        <mxCell id="f973rvLhNH8OjaS4SSxk-120" style="shape=tableRow;horizontal=0;startSize=0;swimlaneHead=0;swimlaneBody=0;top=0;left=0;bottom=0;right=0;collapsible=0;dropTarget=0;fillColor=none;points=[[0,0.5],[1,0.5]];portConstraint=eastwest;rounded=0;sketch=0;fontColor=#1D3557;strokeColor=#457B9D;" parent="f973rvLhNH8OjaS4SSxk-105" vertex="1">
          <mxGeometry y="160" width="160" height="40" as="geometry" />
        </mxCell>
        <mxCell id="f973rvLhNH8OjaS4SSxk-121" value="m_eLastErrCode" style="shape=partialRectangle;html=1;whiteSpace=wrap;connectable=0;fillColor=none;top=0;left=0;bottom=0;right=0;overflow=hidden;rounded=0;sketch=0;fontColor=#1D3557;strokeColor=#457B9D;" parent="f973rvLhNH8OjaS4SSxk-120" vertex="1">
          <mxGeometry width="160" height="40" as="geometry">
            <mxRectangle width="160" height="40" as="alternateBounds" />
          </mxGeometry>
        </mxCell>
        <mxCell id="f973rvLhNH8OjaS4SSxk-122" style="shape=tableRow;horizontal=0;startSize=0;swimlaneHead=0;swimlaneBody=0;top=0;left=0;bottom=0;right=0;collapsible=0;dropTarget=0;fillColor=none;points=[[0,0.5],[1,0.5]];portConstraint=eastwest;rounded=0;sketch=0;fontColor=#1D3557;strokeColor=#457B9D;" parent="f973rvLhNH8OjaS4SSxk-105" vertex="1">
          <mxGeometry y="200" width="160" height="40" as="geometry" />
        </mxCell>
        <mxCell id="f973rvLhNH8OjaS4SSxk-123" value="m_nTaskWaitTime" style="shape=partialRectangle;html=1;whiteSpace=wrap;connectable=0;fillColor=none;top=0;left=0;bottom=0;right=0;overflow=hidden;rounded=0;sketch=0;fontColor=#1D3557;strokeColor=#457B9D;" parent="f973rvLhNH8OjaS4SSxk-122" vertex="1">
          <mxGeometry width="160" height="40" as="geometry">
            <mxRectangle width="160" height="40" as="alternateBounds" />
          </mxGeometry>
        </mxCell>
        <mxCell id="f973rvLhNH8OjaS4SSxk-128" style="shape=tableRow;horizontal=0;startSize=0;swimlaneHead=0;swimlaneBody=0;top=0;left=0;bottom=0;right=0;collapsible=0;dropTarget=0;fillColor=none;points=[[0,0.5],[1,0.5]];portConstraint=eastwest;rounded=0;sketch=0;fontColor=#1D3557;strokeColor=#457B9D;" parent="f973rvLhNH8OjaS4SSxk-105" vertex="1">
          <mxGeometry y="240" width="160" height="40" as="geometry" />
        </mxCell>
        <mxCell id="f973rvLhNH8OjaS4SSxk-129" value="m_nLimitSpeedKBPS" style="shape=partialRectangle;html=1;whiteSpace=wrap;connectable=0;fillColor=none;top=0;left=0;bottom=0;right=0;overflow=hidden;rounded=0;sketch=0;fontColor=#1D3557;strokeColor=#457B9D;" parent="f973rvLhNH8OjaS4SSxk-128" vertex="1">
          <mxGeometry width="160" height="40" as="geometry">
            <mxRectangle width="160" height="40" as="alternateBounds" />
          </mxGeometry>
        </mxCell>
        <mxCell id="f973rvLhNH8OjaS4SSxk-130" style="edgeStyle=orthogonalEdgeStyle;curved=0;rounded=1;sketch=0;orthogonalLoop=1;jettySize=auto;html=1;exitX=1;exitY=0.5;exitDx=0;exitDy=0;entryX=0;entryY=0.5;entryDx=0;entryDy=0;fontColor=#1D3557;strokeColor=#457B9D;fillColor=#A8DADC;" parent="WIyWlLk6GJQsqaUBKTNV-1" source="f973rvLhNH8OjaS4SSxk-97" target="f973rvLhNH8OjaS4SSxk-106" edge="1">
          <mxGeometry relative="1" as="geometry" />
        </mxCell>
        <mxCell id="f973rvLhNH8OjaS4SSxk-150" value="" style="shape=table;html=1;whiteSpace=wrap;startSize=0;container=1;collapsible=0;childLayout=tableLayout;rounded=0;sketch=0;fontColor=#1D3557;strokeColor=#457B9D;fillColor=#A8DADC;" parent="WIyWlLk6GJQsqaUBKTNV-1" vertex="1">
          <mxGeometry x="2210" y="30" width="120" height="360" as="geometry" />
        </mxCell>
        <mxCell id="f973rvLhNH8OjaS4SSxk-151" value="" style="shape=tableRow;horizontal=0;startSize=0;swimlaneHead=0;swimlaneBody=0;top=0;left=0;bottom=0;right=0;collapsible=0;dropTarget=0;fillColor=none;points=[[0,0.5],[1,0.5]];portConstraint=eastwest;rounded=0;sketch=0;fontColor=#1D3557;strokeColor=#457B9D;" parent="f973rvLhNH8OjaS4SSxk-150" vertex="1">
          <mxGeometry width="120" height="40" as="geometry" />
        </mxCell>
        <mxCell id="f973rvLhNH8OjaS4SSxk-152" value="XFileSystemModule" style="shape=partialRectangle;html=1;whiteSpace=wrap;connectable=0;fillColor=#fff2cc;top=0;left=0;bottom=0;right=0;overflow=hidden;rounded=0;sketch=0;strokeColor=#d6b656;" parent="f973rvLhNH8OjaS4SSxk-151" vertex="1">
          <mxGeometry width="120" height="40" as="geometry">
            <mxRectangle width="120" height="40" as="alternateBounds" />
          </mxGeometry>
        </mxCell>
        <mxCell id="f973rvLhNH8OjaS4SSxk-155" value="" style="shape=tableRow;horizontal=0;startSize=0;swimlaneHead=0;swimlaneBody=0;top=0;left=0;bottom=0;right=0;collapsible=0;dropTarget=0;fillColor=none;points=[[0,0.5],[1,0.5]];portConstraint=eastwest;rounded=0;sketch=0;fontColor=#1D3557;strokeColor=#457B9D;" parent="f973rvLhNH8OjaS4SSxk-150" vertex="1">
          <mxGeometry y="40" width="120" height="40" as="geometry" />
        </mxCell>
        <mxCell id="f973rvLhNH8OjaS4SSxk-156" value="m_bAbortingALL" style="shape=partialRectangle;html=1;whiteSpace=wrap;connectable=0;fillColor=none;top=0;left=0;bottom=0;right=0;overflow=hidden;rounded=0;sketch=0;fontColor=#1D3557;strokeColor=#457B9D;" parent="f973rvLhNH8OjaS4SSxk-155" vertex="1">
          <mxGeometry width="120" height="40" as="geometry">
            <mxRectangle width="120" height="40" as="alternateBounds" />
          </mxGeometry>
        </mxCell>
        <mxCell id="f973rvLhNH8OjaS4SSxk-159" value="" style="shape=tableRow;horizontal=0;startSize=0;swimlaneHead=0;swimlaneBody=0;top=0;left=0;bottom=0;right=0;collapsible=0;dropTarget=0;fillColor=none;points=[[0,0.5],[1,0.5]];portConstraint=eastwest;rounded=0;sketch=0;fontColor=#1D3557;strokeColor=#457B9D;" parent="f973rvLhNH8OjaS4SSxk-150" vertex="1">
          <mxGeometry y="80" width="120" height="40" as="geometry" />
        </mxCell>
        <mxCell id="f973rvLhNH8OjaS4SSxk-160" value="m_listFileSystem" style="shape=partialRectangle;html=1;whiteSpace=wrap;connectable=0;fillColor=none;top=0;left=0;bottom=0;right=0;overflow=hidden;rounded=0;sketch=0;fontColor=#1D3557;strokeColor=#457B9D;" parent="f973rvLhNH8OjaS4SSxk-159" vertex="1">
          <mxGeometry width="120" height="40" as="geometry">
            <mxRectangle width="120" height="40" as="alternateBounds" />
          </mxGeometry>
        </mxCell>
        <mxCell id="f973rvLhNH8OjaS4SSxk-163" style="shape=tableRow;horizontal=0;startSize=0;swimlaneHead=0;swimlaneBody=0;top=0;left=0;bottom=0;right=0;collapsible=0;dropTarget=0;fillColor=none;points=[[0,0.5],[1,0.5]];portConstraint=eastwest;rounded=0;sketch=0;fontColor=#1D3557;strokeColor=#457B9D;" parent="f973rvLhNH8OjaS4SSxk-150" vertex="1">
          <mxGeometry y="120" width="120" height="40" as="geometry" />
        </mxCell>
        <mxCell id="f973rvLhNH8OjaS4SSxk-164" value="m_listWait" style="shape=partialRectangle;html=1;whiteSpace=wrap;connectable=0;fillColor=none;top=0;left=0;bottom=0;right=0;overflow=hidden;rounded=0;sketch=0;fontColor=#1D3557;strokeColor=#457B9D;" parent="f973rvLhNH8OjaS4SSxk-163" vertex="1">
          <mxGeometry width="120" height="40" as="geometry">
            <mxRectangle width="120" height="40" as="alternateBounds" />
          </mxGeometry>
        </mxCell>
        <mxCell id="f973rvLhNH8OjaS4SSxk-165" style="shape=tableRow;horizontal=0;startSize=0;swimlaneHead=0;swimlaneBody=0;top=0;left=0;bottom=0;right=0;collapsible=0;dropTarget=0;fillColor=none;points=[[0,0.5],[1,0.5]];portConstraint=eastwest;rounded=0;sketch=0;fontColor=#1D3557;strokeColor=#457B9D;" parent="f973rvLhNH8OjaS4SSxk-150" vertex="1">
          <mxGeometry y="160" width="120" height="40" as="geometry" />
        </mxCell>
        <mxCell id="f973rvLhNH8OjaS4SSxk-166" value="m_mapIdle" style="shape=partialRectangle;html=1;whiteSpace=wrap;connectable=0;fillColor=none;top=0;left=0;bottom=0;right=0;overflow=hidden;rounded=0;sketch=0;fontColor=#1D3557;strokeColor=#457B9D;" parent="f973rvLhNH8OjaS4SSxk-165" vertex="1">
          <mxGeometry width="120" height="40" as="geometry">
            <mxRectangle width="120" height="40" as="alternateBounds" />
          </mxGeometry>
        </mxCell>
        <mxCell id="f973rvLhNH8OjaS4SSxk-167" style="shape=tableRow;horizontal=0;startSize=0;swimlaneHead=0;swimlaneBody=0;top=0;left=0;bottom=0;right=0;collapsible=0;dropTarget=0;fillColor=none;points=[[0,0.5],[1,0.5]];portConstraint=eastwest;rounded=0;sketch=0;fontColor=#1D3557;strokeColor=#457B9D;" parent="f973rvLhNH8OjaS4SSxk-150" vertex="1">
          <mxGeometry y="200" width="120" height="40" as="geometry" />
        </mxCell>
        <mxCell id="f973rvLhNH8OjaS4SSxk-168" value="m_mapPause" style="shape=partialRectangle;html=1;whiteSpace=wrap;connectable=0;fillColor=none;top=0;left=0;bottom=0;right=0;overflow=hidden;rounded=0;sketch=0;fontColor=#1D3557;strokeColor=#457B9D;" parent="f973rvLhNH8OjaS4SSxk-167" vertex="1">
          <mxGeometry width="120" height="40" as="geometry">
            <mxRectangle width="120" height="40" as="alternateBounds" />
          </mxGeometry>
        </mxCell>
        <mxCell id="f973rvLhNH8OjaS4SSxk-169" style="shape=tableRow;horizontal=0;startSize=0;swimlaneHead=0;swimlaneBody=0;top=0;left=0;bottom=0;right=0;collapsible=0;dropTarget=0;fillColor=none;points=[[0,0.5],[1,0.5]];portConstraint=eastwest;rounded=0;sketch=0;fontColor=#1D3557;strokeColor=#457B9D;" parent="f973rvLhNH8OjaS4SSxk-150" vertex="1">
          <mxGeometry y="240" width="120" height="40" as="geometry" />
        </mxCell>
        <mxCell id="f973rvLhNH8OjaS4SSxk-170" value="m_MutexWait" style="shape=partialRectangle;html=1;whiteSpace=wrap;connectable=0;fillColor=none;top=0;left=0;bottom=0;right=0;overflow=hidden;rounded=0;sketch=0;fontColor=#1D3557;strokeColor=#457B9D;" parent="f973rvLhNH8OjaS4SSxk-169" vertex="1">
          <mxGeometry width="120" height="40" as="geometry">
            <mxRectangle width="120" height="40" as="alternateBounds" />
          </mxGeometry>
        </mxCell>
        <mxCell id="f973rvLhNH8OjaS4SSxk-171" style="shape=tableRow;horizontal=0;startSize=0;swimlaneHead=0;swimlaneBody=0;top=0;left=0;bottom=0;right=0;collapsible=0;dropTarget=0;fillColor=none;points=[[0,0.5],[1,0.5]];portConstraint=eastwest;rounded=0;sketch=0;fontColor=#1D3557;strokeColor=#457B9D;" parent="f973rvLhNH8OjaS4SSxk-150" vertex="1">
          <mxGeometry y="280" width="120" height="40" as="geometry" />
        </mxCell>
        <mxCell id="f973rvLhNH8OjaS4SSxk-172" value="m_Con" style="shape=partialRectangle;html=1;whiteSpace=wrap;connectable=0;fillColor=none;top=0;left=0;bottom=0;right=0;overflow=hidden;rounded=0;sketch=0;fontColor=#1D3557;strokeColor=#457B9D;" parent="f973rvLhNH8OjaS4SSxk-171" vertex="1">
          <mxGeometry width="120" height="40" as="geometry">
            <mxRectangle width="120" height="40" as="alternateBounds" />
          </mxGeometry>
        </mxCell>
        <mxCell id="f973rvLhNH8OjaS4SSxk-173" style="shape=tableRow;horizontal=0;startSize=0;swimlaneHead=0;swimlaneBody=0;top=0;left=0;bottom=0;right=0;collapsible=0;dropTarget=0;fillColor=none;points=[[0,0.5],[1,0.5]];portConstraint=eastwest;rounded=0;sketch=0;fontColor=#1D3557;strokeColor=#457B9D;" parent="f973rvLhNH8OjaS4SSxk-150" vertex="1">
          <mxGeometry y="320" width="120" height="40" as="geometry" />
        </mxCell>
        <mxCell id="f973rvLhNH8OjaS4SSxk-174" value="m_Thread" style="shape=partialRectangle;html=1;whiteSpace=wrap;connectable=0;fillColor=none;top=0;left=0;bottom=0;right=0;overflow=hidden;rounded=0;sketch=0;fontColor=#1D3557;strokeColor=#457B9D;" parent="f973rvLhNH8OjaS4SSxk-173" vertex="1">
          <mxGeometry width="120" height="40" as="geometry">
            <mxRectangle width="120" height="40" as="alternateBounds" />
          </mxGeometry>
        </mxCell>
        <mxCell id="f973rvLhNH8OjaS4SSxk-188" value="" style="shape=table;html=1;whiteSpace=wrap;startSize=0;container=1;collapsible=0;childLayout=tableLayout;rounded=0;sketch=0;fontColor=#1D3557;strokeColor=#457B9D;fillColor=#A8DADC;" parent="WIyWlLk6GJQsqaUBKTNV-1" vertex="1">
          <mxGeometry x="510" y="-320" width="150" height="240" as="geometry" />
        </mxCell>
        <mxCell id="f973rvLhNH8OjaS4SSxk-189" value="" style="shape=tableRow;horizontal=0;startSize=0;swimlaneHead=0;swimlaneBody=0;top=0;left=0;bottom=0;right=0;collapsible=0;dropTarget=0;fillColor=none;points=[[0,0.5],[1,0.5]];portConstraint=eastwest;rounded=0;sketch=0;fontColor=#1D3557;strokeColor=#457B9D;" parent="f973rvLhNH8OjaS4SSxk-188" vertex="1">
          <mxGeometry width="150" height="40" as="geometry" />
        </mxCell>
        <mxCell id="f973rvLhNH8OjaS4SSxk-190" value="XPAK_DELETER_INPUT" style="shape=partialRectangle;html=1;whiteSpace=wrap;connectable=0;fillColor=#fff2cc;top=0;left=0;bottom=0;right=0;overflow=hidden;rounded=0;sketch=0;strokeColor=#d6b656;" parent="f973rvLhNH8OjaS4SSxk-189" vertex="1">
          <mxGeometry width="150" height="40" as="geometry">
            <mxRectangle width="150" height="40" as="alternateBounds" />
          </mxGeometry>
        </mxCell>
        <mxCell id="f973rvLhNH8OjaS4SSxk-193" value="" style="shape=tableRow;horizontal=0;startSize=0;swimlaneHead=0;swimlaneBody=0;top=0;left=0;bottom=0;right=0;collapsible=0;dropTarget=0;fillColor=none;points=[[0,0.5],[1,0.5]];portConstraint=eastwest;rounded=0;sketch=0;fontColor=#1D3557;strokeColor=#457B9D;" parent="f973rvLhNH8OjaS4SSxk-188" vertex="1">
          <mxGeometry y="40" width="150" height="40" as="geometry" />
        </mxCell>
        <mxCell id="f973rvLhNH8OjaS4SSxk-194" value="AppCode" style="shape=partialRectangle;html=1;whiteSpace=wrap;connectable=0;fillColor=none;top=0;left=0;bottom=0;right=0;overflow=hidden;rounded=0;sketch=0;fontColor=#1D3557;strokeColor=#457B9D;" parent="f973rvLhNH8OjaS4SSxk-193" vertex="1">
          <mxGeometry width="150" height="40" as="geometry">
            <mxRectangle width="150" height="40" as="alternateBounds" />
          </mxGeometry>
        </mxCell>
        <mxCell id="f973rvLhNH8OjaS4SSxk-197" value="" style="shape=tableRow;horizontal=0;startSize=0;swimlaneHead=0;swimlaneBody=0;top=0;left=0;bottom=0;right=0;collapsible=0;dropTarget=0;fillColor=none;points=[[0,0.5],[1,0.5]];portConstraint=eastwest;rounded=0;sketch=0;fontColor=#1D3557;strokeColor=#457B9D;" parent="f973rvLhNH8OjaS4SSxk-188" vertex="1">
          <mxGeometry y="80" width="150" height="40" as="geometry" />
        </mxCell>
        <mxCell id="f973rvLhNH8OjaS4SSxk-198" value="StreamConf" style="shape=partialRectangle;html=1;whiteSpace=wrap;connectable=0;fillColor=none;top=0;left=0;bottom=0;right=0;overflow=hidden;rounded=0;sketch=0;fontColor=#1D3557;strokeColor=#457B9D;" parent="f973rvLhNH8OjaS4SSxk-197" vertex="1">
          <mxGeometry width="150" height="40" as="geometry">
            <mxRectangle width="150" height="40" as="alternateBounds" />
          </mxGeometry>
        </mxCell>
        <mxCell id="f973rvLhNH8OjaS4SSxk-201" style="shape=tableRow;horizontal=0;startSize=0;swimlaneHead=0;swimlaneBody=0;top=0;left=0;bottom=0;right=0;collapsible=0;dropTarget=0;fillColor=none;points=[[0,0.5],[1,0.5]];portConstraint=eastwest;rounded=0;sketch=0;fontColor=#1D3557;strokeColor=#457B9D;" parent="f973rvLhNH8OjaS4SSxk-188" vertex="1">
          <mxGeometry y="120" width="150" height="40" as="geometry" />
        </mxCell>
        <mxCell id="f973rvLhNH8OjaS4SSxk-202" value="MuxInput" style="shape=partialRectangle;html=1;whiteSpace=wrap;connectable=0;fillColor=none;top=0;left=0;bottom=0;right=0;overflow=hidden;rounded=0;sketch=0;fontColor=#1D3557;strokeColor=#457B9D;" parent="f973rvLhNH8OjaS4SSxk-201" vertex="1">
          <mxGeometry width="150" height="40" as="geometry">
            <mxRectangle width="150" height="40" as="alternateBounds" />
          </mxGeometry>
        </mxCell>
        <mxCell id="f973rvLhNH8OjaS4SSxk-203" style="shape=tableRow;horizontal=0;startSize=0;swimlaneHead=0;swimlaneBody=0;top=0;left=0;bottom=0;right=0;collapsible=0;dropTarget=0;fillColor=none;points=[[0,0.5],[1,0.5]];portConstraint=eastwest;rounded=0;sketch=0;fontColor=#1D3557;strokeColor=#457B9D;" parent="f973rvLhNH8OjaS4SSxk-188" vertex="1">
          <mxGeometry y="160" width="150" height="40" as="geometry" />
        </mxCell>
        <mxCell id="f973rvLhNH8OjaS4SSxk-204" value="bInit" style="shape=partialRectangle;html=1;whiteSpace=wrap;connectable=0;fillColor=none;top=0;left=0;bottom=0;right=0;overflow=hidden;rounded=0;sketch=0;fontColor=#1D3557;strokeColor=#457B9D;" parent="f973rvLhNH8OjaS4SSxk-203" vertex="1">
          <mxGeometry width="150" height="40" as="geometry">
            <mxRectangle width="150" height="40" as="alternateBounds" />
          </mxGeometry>
        </mxCell>
        <mxCell id="f973rvLhNH8OjaS4SSxk-205" style="shape=tableRow;horizontal=0;startSize=0;swimlaneHead=0;swimlaneBody=0;top=0;left=0;bottom=0;right=0;collapsible=0;dropTarget=0;fillColor=none;points=[[0,0.5],[1,0.5]];portConstraint=eastwest;rounded=0;sketch=0;fontColor=#1D3557;strokeColor=#457B9D;" parent="f973rvLhNH8OjaS4SSxk-188" vertex="1">
          <mxGeometry y="200" width="150" height="40" as="geometry" />
        </mxCell>
        <mxCell id="f973rvLhNH8OjaS4SSxk-206" value="PakDeleteConf" style="shape=partialRectangle;html=1;whiteSpace=wrap;connectable=0;fillColor=none;top=0;left=0;bottom=0;right=0;overflow=hidden;rounded=0;sketch=0;fontColor=#1D3557;strokeColor=#457B9D;" parent="f973rvLhNH8OjaS4SSxk-205" vertex="1">
          <mxGeometry width="150" height="40" as="geometry">
            <mxRectangle width="150" height="40" as="alternateBounds" />
          </mxGeometry>
        </mxCell>
        <mxCell id="f973rvLhNH8OjaS4SSxk-207" style="edgeStyle=orthogonalEdgeStyle;curved=0;rounded=1;sketch=0;orthogonalLoop=1;jettySize=auto;html=1;exitX=1;exitY=0.5;exitDx=0;exitDy=0;fontColor=#1D3557;strokeColor=#457B9D;fillColor=#A8DADC;" parent="WIyWlLk6GJQsqaUBKTNV-1" source="f973rvLhNH8OjaS4SSxk-43" target="f973rvLhNH8OjaS4SSxk-189" edge="1">
          <mxGeometry relative="1" as="geometry">
            <Array as="points">
              <mxPoint x="440" y="-20" />
              <mxPoint x="440" y="-300" />
            </Array>
          </mxGeometry>
        </mxCell>
        <mxCell id="f973rvLhNH8OjaS4SSxk-208" value="" style="shape=table;html=1;whiteSpace=wrap;startSize=0;container=1;collapsible=0;childLayout=tableLayout;rounded=0;sketch=0;fontColor=#1D3557;strokeColor=#457B9D;fillColor=#A8DADC;" parent="WIyWlLk6GJQsqaUBKTNV-1" vertex="1">
          <mxGeometry x="1790" y="10" width="200" height="280" as="geometry" />
        </mxCell>
        <mxCell id="f973rvLhNH8OjaS4SSxk-209" value="" style="shape=tableRow;horizontal=0;startSize=0;swimlaneHead=0;swimlaneBody=0;top=0;left=0;bottom=0;right=0;collapsible=0;dropTarget=0;fillColor=none;points=[[0,0.5],[1,0.5]];portConstraint=eastwest;rounded=0;sketch=0;fontColor=#1D3557;strokeColor=#457B9D;" parent="f973rvLhNH8OjaS4SSxk-208" vertex="1">
          <mxGeometry width="200" height="40" as="geometry" />
        </mxCell>
        <mxCell id="f973rvLhNH8OjaS4SSxk-210" value="XSTREAM_DOWNLOADER_INPUT" style="shape=partialRectangle;html=1;whiteSpace=wrap;connectable=0;fillColor=#fff2cc;top=0;left=0;bottom=0;right=0;overflow=hidden;rounded=0;sketch=0;strokeColor=#d6b656;" parent="f973rvLhNH8OjaS4SSxk-209" vertex="1">
          <mxGeometry width="200" height="40" as="geometry">
            <mxRectangle width="200" height="40" as="alternateBounds" />
          </mxGeometry>
        </mxCell>
        <mxCell id="f973rvLhNH8OjaS4SSxk-213" value="" style="shape=tableRow;horizontal=0;startSize=0;swimlaneHead=0;swimlaneBody=0;top=0;left=0;bottom=0;right=0;collapsible=0;dropTarget=0;fillColor=none;points=[[0,0.5],[1,0.5]];portConstraint=eastwest;rounded=0;sketch=0;fontColor=#1D3557;strokeColor=#457B9D;" parent="f973rvLhNH8OjaS4SSxk-208" vertex="1">
          <mxGeometry y="40" width="200" height="40" as="geometry" />
        </mxCell>
        <mxCell id="f973rvLhNH8OjaS4SSxk-214" value="AppCode" style="shape=partialRectangle;html=1;whiteSpace=wrap;connectable=0;fillColor=none;top=0;left=0;bottom=0;right=0;overflow=hidden;rounded=0;sketch=0;fontColor=#1D3557;strokeColor=#457B9D;" parent="f973rvLhNH8OjaS4SSxk-213" vertex="1">
          <mxGeometry width="200" height="40" as="geometry">
            <mxRectangle width="200" height="40" as="alternateBounds" />
          </mxGeometry>
        </mxCell>
        <mxCell id="f973rvLhNH8OjaS4SSxk-217" value="" style="shape=tableRow;horizontal=0;startSize=0;swimlaneHead=0;swimlaneBody=0;top=0;left=0;bottom=0;right=0;collapsible=0;dropTarget=0;fillColor=none;points=[[0,0.5],[1,0.5]];portConstraint=eastwest;rounded=0;sketch=0;fontColor=#1D3557;strokeColor=#457B9D;" parent="f973rvLhNH8OjaS4SSxk-208" vertex="1">
          <mxGeometry y="80" width="200" height="40" as="geometry" />
        </mxCell>
        <mxCell id="f973rvLhNH8OjaS4SSxk-218" value="StreamConf" style="shape=partialRectangle;html=1;whiteSpace=wrap;connectable=0;fillColor=none;top=0;left=0;bottom=0;right=0;overflow=hidden;rounded=0;sketch=0;fontColor=#1D3557;strokeColor=#457B9D;" parent="f973rvLhNH8OjaS4SSxk-217" vertex="1">
          <mxGeometry width="200" height="40" as="geometry">
            <mxRectangle width="200" height="40" as="alternateBounds" />
          </mxGeometry>
        </mxCell>
        <mxCell id="f973rvLhNH8OjaS4SSxk-221" style="shape=tableRow;horizontal=0;startSize=0;swimlaneHead=0;swimlaneBody=0;top=0;left=0;bottom=0;right=0;collapsible=0;dropTarget=0;fillColor=none;points=[[0,0.5],[1,0.5]];portConstraint=eastwest;rounded=0;sketch=0;fontColor=#1D3557;strokeColor=#457B9D;" parent="f973rvLhNH8OjaS4SSxk-208" vertex="1">
          <mxGeometry y="120" width="200" height="40" as="geometry" />
        </mxCell>
        <mxCell id="f973rvLhNH8OjaS4SSxk-222" value="MuxInput" style="shape=partialRectangle;html=1;whiteSpace=wrap;connectable=0;fillColor=none;top=0;left=0;bottom=0;right=0;overflow=hidden;rounded=0;sketch=0;fontColor=#1D3557;strokeColor=#457B9D;" parent="f973rvLhNH8OjaS4SSxk-221" vertex="1">
          <mxGeometry width="200" height="40" as="geometry">
            <mxRectangle width="200" height="40" as="alternateBounds" />
          </mxGeometry>
        </mxCell>
        <mxCell id="f973rvLhNH8OjaS4SSxk-223" style="shape=tableRow;horizontal=0;startSize=0;swimlaneHead=0;swimlaneBody=0;top=0;left=0;bottom=0;right=0;collapsible=0;dropTarget=0;fillColor=none;points=[[0,0.5],[1,0.5]];portConstraint=eastwest;rounded=0;sketch=0;fontColor=#1D3557;strokeColor=#457B9D;" parent="f973rvLhNH8OjaS4SSxk-208" vertex="1">
          <mxGeometry y="160" width="200" height="40" as="geometry" />
        </mxCell>
        <mxCell id="f973rvLhNH8OjaS4SSxk-224" value="nOpenedFlag" style="shape=partialRectangle;html=1;whiteSpace=wrap;connectable=0;fillColor=none;top=0;left=0;bottom=0;right=0;overflow=hidden;rounded=0;sketch=0;fontColor=#1D3557;strokeColor=#457B9D;" parent="f973rvLhNH8OjaS4SSxk-223" vertex="1">
          <mxGeometry width="200" height="40" as="geometry">
            <mxRectangle width="200" height="40" as="alternateBounds" />
          </mxGeometry>
        </mxCell>
        <mxCell id="f973rvLhNH8OjaS4SSxk-225" style="shape=tableRow;horizontal=0;startSize=0;swimlaneHead=0;swimlaneBody=0;top=0;left=0;bottom=0;right=0;collapsible=0;dropTarget=0;fillColor=none;points=[[0,0.5],[1,0.5]];portConstraint=eastwest;rounded=0;sketch=0;fontColor=#1D3557;strokeColor=#457B9D;" parent="f973rvLhNH8OjaS4SSxk-208" vertex="1">
          <mxGeometry y="200" width="200" height="40" as="geometry" />
        </mxCell>
        <mxCell id="f973rvLhNH8OjaS4SSxk-226" value="nManager" style="shape=partialRectangle;html=1;whiteSpace=wrap;connectable=0;fillColor=none;top=0;left=0;bottom=0;right=0;overflow=hidden;rounded=0;sketch=0;fontColor=#1D3557;strokeColor=#457B9D;" parent="f973rvLhNH8OjaS4SSxk-225" vertex="1">
          <mxGeometry width="200" height="40" as="geometry">
            <mxRectangle width="200" height="40" as="alternateBounds" />
          </mxGeometry>
        </mxCell>
        <mxCell id="f973rvLhNH8OjaS4SSxk-227" style="shape=tableRow;horizontal=0;startSize=0;swimlaneHead=0;swimlaneBody=0;top=0;left=0;bottom=0;right=0;collapsible=0;dropTarget=0;fillColor=none;points=[[0,0.5],[1,0.5]];portConstraint=eastwest;rounded=0;sketch=0;fontColor=#1D3557;strokeColor=#457B9D;" parent="f973rvLhNH8OjaS4SSxk-208" vertex="1">
          <mxGeometry y="240" width="200" height="40" as="geometry" />
        </mxCell>
        <mxCell id="f973rvLhNH8OjaS4SSxk-228" value="bDelayAbortModule" style="shape=partialRectangle;html=1;whiteSpace=wrap;connectable=0;fillColor=none;top=0;left=0;bottom=0;right=0;overflow=hidden;rounded=0;sketch=0;fontColor=#1D3557;strokeColor=#457B9D;" parent="f973rvLhNH8OjaS4SSxk-227" vertex="1">
          <mxGeometry width="200" height="40" as="geometry">
            <mxRectangle width="200" height="40" as="alternateBounds" />
          </mxGeometry>
        </mxCell>
        <mxCell id="f973rvLhNH8OjaS4SSxk-229" style="edgeStyle=orthogonalEdgeStyle;curved=0;rounded=1;sketch=0;orthogonalLoop=1;jettySize=auto;html=1;exitX=1;exitY=0.5;exitDx=0;exitDy=0;entryX=0;entryY=0.075;entryDx=0;entryDy=0;entryPerimeter=0;fontColor=#1D3557;strokeColor=#457B9D;fillColor=#A8DADC;" parent="WIyWlLk6GJQsqaUBKTNV-1" source="f973rvLhNH8OjaS4SSxk-103" target="f973rvLhNH8OjaS4SSxk-208" edge="1">
          <mxGeometry relative="1" as="geometry">
            <Array as="points">
              <mxPoint x="1560" y="430" />
              <mxPoint x="1560" y="31" />
            </Array>
          </mxGeometry>
        </mxCell>
        <mxCell id="f973rvLhNH8OjaS4SSxk-232" style="edgeStyle=orthogonalEdgeStyle;curved=0;rounded=1;sketch=0;orthogonalLoop=1;jettySize=auto;html=1;exitX=1;exitY=0.5;exitDx=0;exitDy=0;entryX=0;entryY=0.5;entryDx=0;entryDy=0;fontColor=#1D3557;strokeColor=#457B9D;fillColor=#A8DADC;" parent="WIyWlLk6GJQsqaUBKTNV-1" source="f973rvLhNH8OjaS4SSxk-110" target="f973rvLhNH8OjaS4SSxk-209" edge="1">
          <mxGeometry relative="1" as="geometry">
            <Array as="points">
              <mxPoint x="1560" y="70" />
              <mxPoint x="1560" y="30" />
            </Array>
          </mxGeometry>
        </mxCell>
        <mxCell id="f973rvLhNH8OjaS4SSxk-233" style="edgeStyle=orthogonalEdgeStyle;curved=0;rounded=1;sketch=0;orthogonalLoop=1;jettySize=auto;html=1;exitX=1;exitY=0.5;exitDx=0;exitDy=0;entryX=0;entryY=0.5;entryDx=0;entryDy=0;fontColor=#1D3557;strokeColor=#457B9D;fillColor=#A8DADC;" parent="WIyWlLk6GJQsqaUBKTNV-1" source="f973rvLhNH8OjaS4SSxk-5" target="f973rvLhNH8OjaS4SSxk-189" edge="1">
          <mxGeometry relative="1" as="geometry">
            <Array as="points">
              <mxPoint x="440" y="-260" />
              <mxPoint x="440" y="-300" />
            </Array>
          </mxGeometry>
        </mxCell>
        <mxCell id="NihhIV8qFMOey9AjhfD8-126" style="edgeStyle=orthogonalEdgeStyle;curved=0;rounded=1;sketch=0;orthogonalLoop=1;jettySize=auto;html=1;exitX=1;exitY=0.25;exitDx=0;exitDy=0;fontColor=#1D3557;strokeColor=#457B9D;fillColor=#A8DADC;" edge="1" parent="WIyWlLk6GJQsqaUBKTNV-1" source="f973rvLhNH8OjaS4SSxk-236" target="f973rvLhNH8OjaS4SSxk-289">
          <mxGeometry relative="1" as="geometry" />
        </mxCell>
        <mxCell id="NihhIV8qFMOey9AjhfD8-127" value="&lt;span style=&quot;color: rgb(0 , 0 , 0) ; font-size: 12px ; background-color: rgb(248 , 249 , 250)&quot;&gt;FileSystemOperation&lt;br&gt;最终会加入到WaitingList&lt;br&gt;&lt;/span&gt;" style="edgeLabel;html=1;align=center;verticalAlign=middle;resizable=0;points=[];fontColor=#1D3557;" vertex="1" connectable="0" parent="NihhIV8qFMOey9AjhfD8-126">
          <mxGeometry x="-0.1606" y="-1" relative="1" as="geometry">
            <mxPoint as="offset" />
          </mxGeometry>
        </mxCell>
        <mxCell id="f973rvLhNH8OjaS4SSxk-236" value="" style="shape=table;html=1;whiteSpace=wrap;startSize=0;container=1;collapsible=0;childLayout=tableLayout;rounded=0;sketch=0;fontColor=#1D3557;strokeColor=#457B9D;fillColor=#A8DADC;" parent="WIyWlLk6GJQsqaUBKTNV-1" vertex="1">
          <mxGeometry x="2410" y="150" width="200" height="240" as="geometry" />
        </mxCell>
        <mxCell id="f973rvLhNH8OjaS4SSxk-237" value="" style="shape=tableRow;horizontal=0;startSize=0;swimlaneHead=0;swimlaneBody=0;top=0;left=0;bottom=0;right=0;collapsible=0;dropTarget=0;fillColor=none;points=[[0,0.5],[1,0.5]];portConstraint=eastwest;rounded=0;sketch=0;fontColor=#1D3557;strokeColor=#457B9D;" parent="f973rvLhNH8OjaS4SSxk-236" vertex="1">
          <mxGeometry width="200" height="40" as="geometry" />
        </mxCell>
        <mxCell id="f973rvLhNH8OjaS4SSxk-238" value="std::list&amp;lt;FileSystemOperation&amp;gt;" style="shape=partialRectangle;html=1;whiteSpace=wrap;connectable=0;fillColor=#fff2cc;top=0;left=0;bottom=0;right=0;overflow=hidden;rounded=0;sketch=0;strokeColor=#d6b656;" parent="f973rvLhNH8OjaS4SSxk-237" vertex="1">
          <mxGeometry width="200" height="40" as="geometry">
            <mxRectangle width="200" height="40" as="alternateBounds" />
          </mxGeometry>
        </mxCell>
        <mxCell id="f973rvLhNH8OjaS4SSxk-241" value="" style="shape=tableRow;horizontal=0;startSize=0;swimlaneHead=0;swimlaneBody=0;top=0;left=0;bottom=0;right=0;collapsible=0;dropTarget=0;fillColor=none;points=[[0,0.5],[1,0.5]];portConstraint=eastwest;rounded=0;sketch=0;fontColor=#1D3557;strokeColor=#457B9D;" parent="f973rvLhNH8OjaS4SSxk-236" vertex="1">
          <mxGeometry y="40" width="200" height="40" as="geometry" />
        </mxCell>
        <mxCell id="f973rvLhNH8OjaS4SSxk-242" value="FileSystemOperation" style="shape=partialRectangle;html=1;whiteSpace=wrap;connectable=0;fillColor=#fff2cc;top=0;left=0;bottom=0;right=0;overflow=hidden;rounded=0;sketch=0;strokeColor=#d6b656;" parent="f973rvLhNH8OjaS4SSxk-241" vertex="1">
          <mxGeometry width="200" height="40" as="geometry">
            <mxRectangle width="200" height="40" as="alternateBounds" />
          </mxGeometry>
        </mxCell>
        <mxCell id="f973rvLhNH8OjaS4SSxk-245" value="" style="shape=tableRow;horizontal=0;startSize=0;swimlaneHead=0;swimlaneBody=0;top=0;left=0;bottom=0;right=0;collapsible=0;dropTarget=0;fillColor=none;points=[[0,0.5],[1,0.5]];portConstraint=eastwest;rounded=0;sketch=0;fontColor=#1D3557;strokeColor=#457B9D;" parent="f973rvLhNH8OjaS4SSxk-236" vertex="1">
          <mxGeometry y="80" width="200" height="40" as="geometry" />
        </mxCell>
        <mxCell id="f973rvLhNH8OjaS4SSxk-246" value="AppCode" style="shape=partialRectangle;html=1;whiteSpace=wrap;connectable=0;fillColor=none;top=0;left=0;bottom=0;right=0;overflow=hidden;rounded=0;sketch=0;fontColor=#1D3557;strokeColor=#457B9D;" parent="f973rvLhNH8OjaS4SSxk-245" vertex="1">
          <mxGeometry width="200" height="40" as="geometry">
            <mxRectangle width="200" height="40" as="alternateBounds" />
          </mxGeometry>
        </mxCell>
        <mxCell id="f973rvLhNH8OjaS4SSxk-249" style="shape=tableRow;horizontal=0;startSize=0;swimlaneHead=0;swimlaneBody=0;top=0;left=0;bottom=0;right=0;collapsible=0;dropTarget=0;fillColor=none;points=[[0,0.5],[1,0.5]];portConstraint=eastwest;rounded=0;sketch=0;fontColor=#1D3557;strokeColor=#457B9D;" parent="f973rvLhNH8OjaS4SSxk-236" vertex="1">
          <mxGeometry y="120" width="200" height="40" as="geometry" />
        </mxCell>
        <mxCell id="f973rvLhNH8OjaS4SSxk-250" value="eType" style="shape=partialRectangle;html=1;whiteSpace=wrap;connectable=0;fillColor=none;top=0;left=0;bottom=0;right=0;overflow=hidden;rounded=0;sketch=0;fontColor=#1D3557;strokeColor=#457B9D;" parent="f973rvLhNH8OjaS4SSxk-249" vertex="1">
          <mxGeometry width="200" height="40" as="geometry">
            <mxRectangle width="200" height="40" as="alternateBounds" />
          </mxGeometry>
        </mxCell>
        <mxCell id="f973rvLhNH8OjaS4SSxk-251" style="shape=tableRow;horizontal=0;startSize=0;swimlaneHead=0;swimlaneBody=0;top=0;left=0;bottom=0;right=0;collapsible=0;dropTarget=0;fillColor=none;points=[[0,0.5],[1,0.5]];portConstraint=eastwest;rounded=0;sketch=0;fontColor=#1D3557;strokeColor=#457B9D;" parent="f973rvLhNH8OjaS4SSxk-236" vertex="1">
          <mxGeometry y="160" width="200" height="40" as="geometry" />
        </mxCell>
        <mxCell id="f973rvLhNH8OjaS4SSxk-252" value="PakConfig" style="shape=partialRectangle;html=1;whiteSpace=wrap;connectable=0;fillColor=none;top=0;left=0;bottom=0;right=0;overflow=hidden;rounded=0;sketch=0;fontColor=#1D3557;strokeColor=#457B9D;" parent="f973rvLhNH8OjaS4SSxk-251" vertex="1">
          <mxGeometry width="200" height="40" as="geometry">
            <mxRectangle width="200" height="40" as="alternateBounds" />
          </mxGeometry>
        </mxCell>
        <mxCell id="f973rvLhNH8OjaS4SSxk-253" style="shape=tableRow;horizontal=0;startSize=0;swimlaneHead=0;swimlaneBody=0;top=0;left=0;bottom=0;right=0;collapsible=0;dropTarget=0;fillColor=none;points=[[0,0.5],[1,0.5]];portConstraint=eastwest;rounded=0;sketch=0;fontColor=#1D3557;strokeColor=#457B9D;" parent="f973rvLhNH8OjaS4SSxk-236" vertex="1">
          <mxGeometry y="200" width="200" height="40" as="geometry" />
        </mxCell>
        <mxCell id="f973rvLhNH8OjaS4SSxk-254" value="nFlag" style="shape=partialRectangle;html=1;whiteSpace=wrap;connectable=0;fillColor=none;top=0;left=0;bottom=0;right=0;overflow=hidden;rounded=0;sketch=0;fontColor=#1D3557;strokeColor=#457B9D;" parent="f973rvLhNH8OjaS4SSxk-253" vertex="1">
          <mxGeometry width="200" height="40" as="geometry">
            <mxRectangle width="200" height="40" as="alternateBounds" />
          </mxGeometry>
        </mxCell>
        <mxCell id="f973rvLhNH8OjaS4SSxk-259" value="" style="shape=table;html=1;whiteSpace=wrap;startSize=0;container=1;collapsible=0;childLayout=tableLayout;rounded=0;sketch=0;fontColor=#1D3557;strokeColor=#457B9D;fillColor=#A8DADC;" parent="WIyWlLk6GJQsqaUBKTNV-1" vertex="1">
          <mxGeometry x="2750" y="40" width="200" height="440" as="geometry" />
        </mxCell>
        <mxCell id="f973rvLhNH8OjaS4SSxk-260" value="" style="shape=tableRow;horizontal=0;startSize=0;swimlaneHead=0;swimlaneBody=0;top=0;left=0;bottom=0;right=0;collapsible=0;dropTarget=0;fillColor=none;points=[[0,0.5],[1,0.5]];portConstraint=eastwest;rounded=0;sketch=0;fontColor=#1D3557;strokeColor=#457B9D;" parent="f973rvLhNH8OjaS4SSxk-259" vertex="1">
          <mxGeometry width="200" height="40" as="geometry" />
        </mxCell>
        <mxCell id="f973rvLhNH8OjaS4SSxk-261" value="std::list&amp;lt;std::shared_ptr&amp;lt;FileSysInfo&amp;gt;&amp;gt;" style="shape=partialRectangle;html=1;whiteSpace=wrap;connectable=0;fillColor=#fff2cc;top=0;left=0;bottom=0;right=0;overflow=hidden;rounded=0;sketch=0;strokeColor=#d6b656;" parent="f973rvLhNH8OjaS4SSxk-260" vertex="1">
          <mxGeometry width="200" height="40" as="geometry">
            <mxRectangle width="200" height="40" as="alternateBounds" />
          </mxGeometry>
        </mxCell>
        <mxCell id="f973rvLhNH8OjaS4SSxk-264" value="" style="shape=tableRow;horizontal=0;startSize=0;swimlaneHead=0;swimlaneBody=0;top=0;left=0;bottom=0;right=0;collapsible=0;dropTarget=0;fillColor=none;points=[[0,0.5],[1,0.5]];portConstraint=eastwest;rounded=0;sketch=0;fontColor=#1D3557;strokeColor=#457B9D;" parent="f973rvLhNH8OjaS4SSxk-259" vertex="1">
          <mxGeometry y="40" width="200" height="40" as="geometry" />
        </mxCell>
        <mxCell id="f973rvLhNH8OjaS4SSxk-265" value="FileSysInfo" style="shape=partialRectangle;html=1;whiteSpace=wrap;connectable=0;fillColor=#fff2cc;top=0;left=0;bottom=0;right=0;overflow=hidden;rounded=0;sketch=0;strokeColor=#d6b656;" parent="f973rvLhNH8OjaS4SSxk-264" vertex="1">
          <mxGeometry width="200" height="40" as="geometry">
            <mxRectangle width="200" height="40" as="alternateBounds" />
          </mxGeometry>
        </mxCell>
        <mxCell id="f973rvLhNH8OjaS4SSxk-268" value="" style="shape=tableRow;horizontal=0;startSize=0;swimlaneHead=0;swimlaneBody=0;top=0;left=0;bottom=0;right=0;collapsible=0;dropTarget=0;fillColor=none;points=[[0,0.5],[1,0.5]];portConstraint=eastwest;rounded=0;sketch=0;fontColor=#1D3557;strokeColor=#457B9D;" parent="f973rvLhNH8OjaS4SSxk-259" vertex="1">
          <mxGeometry y="80" width="200" height="40" as="geometry" />
        </mxCell>
        <mxCell id="f973rvLhNH8OjaS4SSxk-269" value="AppCode" style="shape=partialRectangle;html=1;whiteSpace=wrap;connectable=0;fillColor=none;top=0;left=0;bottom=0;right=0;overflow=hidden;rounded=0;sketch=0;fontColor=#1D3557;strokeColor=#457B9D;" parent="f973rvLhNH8OjaS4SSxk-268" vertex="1">
          <mxGeometry width="200" height="40" as="geometry">
            <mxRectangle width="200" height="40" as="alternateBounds" />
          </mxGeometry>
        </mxCell>
        <mxCell id="f973rvLhNH8OjaS4SSxk-287" style="shape=tableRow;horizontal=0;startSize=0;swimlaneHead=0;swimlaneBody=0;top=0;left=0;bottom=0;right=0;collapsible=0;dropTarget=0;fillColor=none;points=[[0,0.5],[1,0.5]];portConstraint=eastwest;rounded=0;sketch=0;fontColor=#1D3557;strokeColor=#457B9D;" parent="f973rvLhNH8OjaS4SSxk-259" vertex="1">
          <mxGeometry y="120" width="200" height="40" as="geometry" />
        </mxCell>
        <mxCell id="f973rvLhNH8OjaS4SSxk-288" value="PakConfig" style="shape=partialRectangle;html=1;whiteSpace=wrap;connectable=0;fillColor=none;top=0;left=0;bottom=0;right=0;overflow=hidden;rounded=0;sketch=0;fontColor=#1D3557;strokeColor=#457B9D;" parent="f973rvLhNH8OjaS4SSxk-287" vertex="1">
          <mxGeometry width="200" height="40" as="geometry">
            <mxRectangle width="200" height="40" as="alternateBounds" />
          </mxGeometry>
        </mxCell>
        <mxCell id="f973rvLhNH8OjaS4SSxk-285" style="shape=tableRow;horizontal=0;startSize=0;swimlaneHead=0;swimlaneBody=0;top=0;left=0;bottom=0;right=0;collapsible=0;dropTarget=0;fillColor=none;points=[[0,0.5],[1,0.5]];portConstraint=eastwest;rounded=0;sketch=0;fontColor=#1D3557;strokeColor=#457B9D;" parent="f973rvLhNH8OjaS4SSxk-259" vertex="1">
          <mxGeometry y="160" width="200" height="40" as="geometry" />
        </mxCell>
        <mxCell id="f973rvLhNH8OjaS4SSxk-286" value="bPause" style="shape=partialRectangle;html=1;whiteSpace=wrap;connectable=0;fillColor=none;top=0;left=0;bottom=0;right=0;overflow=hidden;rounded=0;sketch=0;fontColor=#1D3557;strokeColor=#457B9D;" parent="f973rvLhNH8OjaS4SSxk-285" vertex="1">
          <mxGeometry width="200" height="40" as="geometry">
            <mxRectangle width="200" height="40" as="alternateBounds" />
          </mxGeometry>
        </mxCell>
        <mxCell id="f973rvLhNH8OjaS4SSxk-283" style="shape=tableRow;horizontal=0;startSize=0;swimlaneHead=0;swimlaneBody=0;top=0;left=0;bottom=0;right=0;collapsible=0;dropTarget=0;fillColor=none;points=[[0,0.5],[1,0.5]];portConstraint=eastwest;rounded=0;sketch=0;fontColor=#1D3557;strokeColor=#457B9D;" parent="f973rvLhNH8OjaS4SSxk-259" vertex="1">
          <mxGeometry y="200" width="200" height="40" as="geometry" />
        </mxCell>
        <mxCell id="f973rvLhNH8OjaS4SSxk-284" value="pXFileSystem" style="shape=partialRectangle;html=1;whiteSpace=wrap;connectable=0;fillColor=none;top=0;left=0;bottom=0;right=0;overflow=hidden;rounded=0;sketch=0;fontColor=#1D3557;strokeColor=#457B9D;" parent="f973rvLhNH8OjaS4SSxk-283" vertex="1">
          <mxGeometry width="200" height="40" as="geometry">
            <mxRectangle width="200" height="40" as="alternateBounds" />
          </mxGeometry>
        </mxCell>
        <mxCell id="f973rvLhNH8OjaS4SSxk-281" style="shape=tableRow;horizontal=0;startSize=0;swimlaneHead=0;swimlaneBody=0;top=0;left=0;bottom=0;right=0;collapsible=0;dropTarget=0;fillColor=none;points=[[0,0.5],[1,0.5]];portConstraint=eastwest;rounded=0;sketch=0;fontColor=#1D3557;strokeColor=#457B9D;" parent="f973rvLhNH8OjaS4SSxk-259" vertex="1">
          <mxGeometry y="240" width="200" height="40" as="geometry" />
        </mxCell>
        <mxCell id="f973rvLhNH8OjaS4SSxk-282" value="nCount" style="shape=partialRectangle;html=1;whiteSpace=wrap;connectable=0;fillColor=none;top=0;left=0;bottom=0;right=0;overflow=hidden;rounded=0;sketch=0;fontColor=#1D3557;strokeColor=#457B9D;" parent="f973rvLhNH8OjaS4SSxk-281" vertex="1">
          <mxGeometry width="200" height="40" as="geometry">
            <mxRectangle width="200" height="40" as="alternateBounds" />
          </mxGeometry>
        </mxCell>
        <mxCell id="f973rvLhNH8OjaS4SSxk-279" style="shape=tableRow;horizontal=0;startSize=0;swimlaneHead=0;swimlaneBody=0;top=0;left=0;bottom=0;right=0;collapsible=0;dropTarget=0;fillColor=none;points=[[0,0.5],[1,0.5]];portConstraint=eastwest;rounded=0;sketch=0;fontColor=#1D3557;strokeColor=#457B9D;" parent="f973rvLhNH8OjaS4SSxk-259" vertex="1">
          <mxGeometry y="280" width="200" height="40" as="geometry" />
        </mxCell>
        <mxCell id="f973rvLhNH8OjaS4SSxk-280" value="nNeedReport" style="shape=partialRectangle;html=1;whiteSpace=wrap;connectable=0;fillColor=none;top=0;left=0;bottom=0;right=0;overflow=hidden;rounded=0;sketch=0;fontColor=#1D3557;strokeColor=#457B9D;" parent="f973rvLhNH8OjaS4SSxk-279" vertex="1">
          <mxGeometry width="200" height="40" as="geometry">
            <mxRectangle width="200" height="40" as="alternateBounds" />
          </mxGeometry>
        </mxCell>
        <mxCell id="f973rvLhNH8OjaS4SSxk-277" style="shape=tableRow;horizontal=0;startSize=0;swimlaneHead=0;swimlaneBody=0;top=0;left=0;bottom=0;right=0;collapsible=0;dropTarget=0;fillColor=none;points=[[0,0.5],[1,0.5]];portConstraint=eastwest;rounded=0;sketch=0;fontColor=#1D3557;strokeColor=#457B9D;" parent="f973rvLhNH8OjaS4SSxk-259" vertex="1">
          <mxGeometry y="320" width="200" height="40" as="geometry" />
        </mxCell>
        <mxCell id="f973rvLhNH8OjaS4SSxk-278" value="bAbortFlag" style="shape=partialRectangle;html=1;whiteSpace=wrap;connectable=0;fillColor=none;top=0;left=0;bottom=0;right=0;overflow=hidden;rounded=0;sketch=0;fontColor=#1D3557;strokeColor=#457B9D;" parent="f973rvLhNH8OjaS4SSxk-277" vertex="1">
          <mxGeometry width="200" height="40" as="geometry">
            <mxRectangle width="200" height="40" as="alternateBounds" />
          </mxGeometry>
        </mxCell>
        <mxCell id="f973rvLhNH8OjaS4SSxk-291" style="shape=tableRow;horizontal=0;startSize=0;swimlaneHead=0;swimlaneBody=0;top=0;left=0;bottom=0;right=0;collapsible=0;dropTarget=0;fillColor=none;points=[[0,0.5],[1,0.5]];portConstraint=eastwest;rounded=0;sketch=0;fontColor=#1D3557;strokeColor=#457B9D;" parent="f973rvLhNH8OjaS4SSxk-259" vertex="1">
          <mxGeometry y="360" width="200" height="40" as="geometry" />
        </mxCell>
        <mxCell id="f973rvLhNH8OjaS4SSxk-292" value="dwAbortTime" style="shape=partialRectangle;html=1;whiteSpace=wrap;connectable=0;fillColor=none;top=0;left=0;bottom=0;right=0;overflow=hidden;rounded=0;sketch=0;fontColor=#1D3557;strokeColor=#457B9D;" parent="f973rvLhNH8OjaS4SSxk-291" vertex="1">
          <mxGeometry width="200" height="40" as="geometry">
            <mxRectangle width="200" height="40" as="alternateBounds" />
          </mxGeometry>
        </mxCell>
        <mxCell id="f973rvLhNH8OjaS4SSxk-289" style="shape=tableRow;horizontal=0;startSize=0;swimlaneHead=0;swimlaneBody=0;top=0;left=0;bottom=0;right=0;collapsible=0;dropTarget=0;fillColor=none;points=[[0,0.5],[1,0.5]];portConstraint=eastwest;rounded=0;sketch=0;fontColor=#1D3557;strokeColor=#457B9D;" parent="f973rvLhNH8OjaS4SSxk-259" vertex="1">
          <mxGeometry y="400" width="200" height="40" as="geometry" />
        </mxCell>
        <mxCell id="f973rvLhNH8OjaS4SSxk-290" value="WaitingList" style="shape=partialRectangle;html=1;whiteSpace=wrap;connectable=0;fillColor=none;top=0;left=0;bottom=0;right=0;overflow=hidden;rounded=0;sketch=0;fontColor=#1D3557;strokeColor=#457B9D;" parent="f973rvLhNH8OjaS4SSxk-289" vertex="1">
          <mxGeometry width="200" height="40" as="geometry">
            <mxRectangle width="200" height="40" as="alternateBounds" />
          </mxGeometry>
        </mxCell>
        <mxCell id="f973rvLhNH8OjaS4SSxk-324" style="edgeStyle=orthogonalEdgeStyle;curved=0;rounded=1;sketch=0;orthogonalLoop=1;jettySize=auto;html=1;exitX=1;exitY=0.5;exitDx=0;exitDy=0;fontColor=#1D3557;strokeColor=#457B9D;fillColor=#A8DADC;" parent="WIyWlLk6GJQsqaUBKTNV-1" source="f973rvLhNH8OjaS4SSxk-323" edge="1">
          <mxGeometry relative="1" as="geometry">
            <mxPoint x="440" y="670" as="targetPoint" />
          </mxGeometry>
        </mxCell>
        <mxCell id="f973rvLhNH8OjaS4SSxk-323" value="&lt;font color=&quot;#000000&quot;&gt;XPakDelete::&lt;/font&gt;&lt;br&gt;&lt;font color=&quot;#000000&quot;&gt;XPAK_DELETER_STATE_UNINIT&lt;/font&gt;" style="rounded=0;whiteSpace=wrap;html=1;sketch=0;fontColor=#1D3557;strokeColor=#457B9D;fillColor=#A8DADC;" parent="WIyWlLk6GJQsqaUBKTNV-1" vertex="1">
          <mxGeometry x="80" y="640" width="250" height="60" as="geometry" />
        </mxCell>
        <mxCell id="f973rvLhNH8OjaS4SSxk-330" style="edgeStyle=orthogonalEdgeStyle;curved=0;rounded=1;sketch=0;orthogonalLoop=1;jettySize=auto;html=1;exitX=0.5;exitY=0;exitDx=0;exitDy=0;entryX=0.5;entryY=0;entryDx=0;entryDy=0;fontColor=#1D3557;strokeColor=#457B9D;fillColor=#A8DADC;" parent="WIyWlLk6GJQsqaUBKTNV-1" source="f973rvLhNH8OjaS4SSxk-325" target="f973rvLhNH8OjaS4SSxk-328" edge="1">
          <mxGeometry relative="1" as="geometry" />
        </mxCell>
        <mxCell id="f973rvLhNH8OjaS4SSxk-331" style="edgeStyle=orthogonalEdgeStyle;curved=0;rounded=1;sketch=0;orthogonalLoop=1;jettySize=auto;html=1;exitX=0.5;exitY=1;exitDx=0;exitDy=0;entryX=0.5;entryY=0;entryDx=0;entryDy=0;fontColor=#1D3557;strokeColor=#457B9D;fillColor=#A8DADC;" parent="WIyWlLk6GJQsqaUBKTNV-1" source="f973rvLhNH8OjaS4SSxk-325" target="f973rvLhNH8OjaS4SSxk-327" edge="1">
          <mxGeometry relative="1" as="geometry" />
        </mxCell>
        <mxCell id="f973rvLhNH8OjaS4SSxk-325" value="PostOpenStreamDownloader" style="rounded=0;whiteSpace=wrap;html=1;sketch=0;fontColor=#1D3557;strokeColor=#457B9D;fillColor=#A8DADC;" parent="WIyWlLk6GJQsqaUBKTNV-1" vertex="1">
          <mxGeometry x="440" y="640" width="250" height="50" as="geometry" />
        </mxCell>
        <mxCell id="f973rvLhNH8OjaS4SSxk-365" style="edgeStyle=orthogonalEdgeStyle;curved=0;rounded=1;sketch=0;orthogonalLoop=1;jettySize=auto;html=1;exitX=0.5;exitY=1;exitDx=0;exitDy=0;entryX=0.5;entryY=0;entryDx=0;entryDy=0;fontColor=#1D3557;strokeColor=#457B9D;fillColor=#A8DADC;dashed=1;" parent="WIyWlLk6GJQsqaUBKTNV-1" source="f973rvLhNH8OjaS4SSxk-327" target="f973rvLhNH8OjaS4SSxk-362" edge="1">
          <mxGeometry relative="1" as="geometry" />
        </mxCell>
        <mxCell id="f973rvLhNH8OjaS4SSxk-327" value="XPakDelete::&lt;br&gt;XPAK_DELETER_STATE_WAIT_DOWNLOADER" style="rounded=0;whiteSpace=wrap;html=1;sketch=0;fontColor=#1D3557;strokeColor=#457B9D;fillColor=#A8DADC;" parent="WIyWlLk6GJQsqaUBKTNV-1" vertex="1">
          <mxGeometry x="420" y="760" width="290" height="50" as="geometry" />
        </mxCell>
        <mxCell id="f973rvLhNH8OjaS4SSxk-333" value="" style="edgeStyle=orthogonalEdgeStyle;curved=0;rounded=1;sketch=0;orthogonalLoop=1;jettySize=auto;html=1;fontColor=#1D3557;strokeColor=#457B9D;fillColor=#A8DADC;" parent="WIyWlLk6GJQsqaUBKTNV-1" source="f973rvLhNH8OjaS4SSxk-328" target="f973rvLhNH8OjaS4SSxk-332" edge="1">
          <mxGeometry relative="1" as="geometry" />
        </mxCell>
        <mxCell id="f973rvLhNH8OjaS4SSxk-328" value="XStramDownloaderProxy::&lt;br&gt;XGAME_DOWNLOAD_STATE_UNINIT" style="rounded=0;whiteSpace=wrap;html=1;sketch=0;fontColor=#1D3557;strokeColor=#457B9D;fillColor=#A8DADC;" parent="WIyWlLk6GJQsqaUBKTNV-1" vertex="1">
          <mxGeometry x="940" y="640" width="290" height="50" as="geometry" />
        </mxCell>
        <mxCell id="f973rvLhNH8OjaS4SSxk-336" style="edgeStyle=orthogonalEdgeStyle;curved=0;rounded=1;sketch=0;orthogonalLoop=1;jettySize=auto;html=1;exitX=0.5;exitY=1;exitDx=0;exitDy=0;entryX=0.5;entryY=0;entryDx=0;entryDy=0;fontColor=#1D3557;strokeColor=#457B9D;fillColor=#A8DADC;" parent="WIyWlLk6GJQsqaUBKTNV-1" source="f973rvLhNH8OjaS4SSxk-332" target="f973rvLhNH8OjaS4SSxk-334" edge="1">
          <mxGeometry relative="1" as="geometry" />
        </mxCell>
        <mxCell id="f973rvLhNH8OjaS4SSxk-339" style="edgeStyle=orthogonalEdgeStyle;curved=0;rounded=1;sketch=0;orthogonalLoop=1;jettySize=auto;html=1;exitX=0.5;exitY=0;exitDx=0;exitDy=0;entryX=0.5;entryY=0;entryDx=0;entryDy=0;fontColor=#1D3557;strokeColor=#457B9D;fillColor=#A8DADC;" parent="WIyWlLk6GJQsqaUBKTNV-1" source="f973rvLhNH8OjaS4SSxk-332" target="f973rvLhNH8OjaS4SSxk-338" edge="1">
          <mxGeometry relative="1" as="geometry" />
        </mxCell>
        <mxCell id="f973rvLhNH8OjaS4SSxk-332" value="PostOpenFileSystem&lt;br&gt;PostQueryStreamDownload" style="rounded=0;whiteSpace=wrap;html=1;sketch=0;fontColor=#1D3557;strokeColor=#457B9D;fillColor=#A8DADC;" parent="WIyWlLk6GJQsqaUBKTNV-1" vertex="1">
          <mxGeometry x="1312" y="640" width="290" height="50" as="geometry" />
        </mxCell>
        <mxCell id="f973rvLhNH8OjaS4SSxk-549" style="edgeStyle=orthogonalEdgeStyle;curved=0;rounded=1;sketch=0;orthogonalLoop=1;jettySize=auto;html=1;exitX=0.5;exitY=1;exitDx=0;exitDy=0;entryX=0.5;entryY=0;entryDx=0;entryDy=0;fontColor=#1D3557;strokeColor=#457B9D;fillColor=#A8DADC;dashed=1;" parent="WIyWlLk6GJQsqaUBKTNV-1" source="f973rvLhNH8OjaS4SSxk-334" target="f973rvLhNH8OjaS4SSxk-347" edge="1">
          <mxGeometry relative="1" as="geometry" />
        </mxCell>
        <mxCell id="f973rvLhNH8OjaS4SSxk-334" value="XStramDownloaderProxy::&lt;br&gt;XGAME_DOWNLOAD_STATE_INITING" style="rounded=0;whiteSpace=wrap;html=1;sketch=0;fontColor=#1D3557;strokeColor=#457B9D;fillColor=#A8DADC;" parent="WIyWlLk6GJQsqaUBKTNV-1" vertex="1">
          <mxGeometry x="1312" y="770" width="290" height="50" as="geometry" />
        </mxCell>
        <mxCell id="f973rvLhNH8OjaS4SSxk-346" style="edgeStyle=orthogonalEdgeStyle;curved=0;rounded=1;sketch=0;orthogonalLoop=1;jettySize=auto;html=1;exitX=0.5;exitY=1;exitDx=0;exitDy=0;fontColor=#1D3557;strokeColor=#457B9D;fillColor=#A8DADC;" parent="WIyWlLk6GJQsqaUBKTNV-1" source="f973rvLhNH8OjaS4SSxk-338" target="f973rvLhNH8OjaS4SSxk-341" edge="1">
          <mxGeometry relative="1" as="geometry" />
        </mxCell>
        <mxCell id="f973rvLhNH8OjaS4SSxk-338" value="XFileSystemModule::&lt;br&gt;_ThreadTick" style="rounded=0;whiteSpace=wrap;html=1;sketch=0;fontColor=#1D3557;strokeColor=#457B9D;fillColor=#A8DADC;" parent="WIyWlLk6GJQsqaUBKTNV-1" vertex="1">
          <mxGeometry x="2210" y="640" width="280" height="50" as="geometry" />
        </mxCell>
        <mxCell id="f973rvLhNH8OjaS4SSxk-343" value="" style="edgeStyle=orthogonalEdgeStyle;curved=0;rounded=1;sketch=0;orthogonalLoop=1;jettySize=auto;html=1;fontColor=#1D3557;strokeColor=#457B9D;fillColor=#A8DADC;" parent="WIyWlLk6GJQsqaUBKTNV-1" source="f973rvLhNH8OjaS4SSxk-341" target="f973rvLhNH8OjaS4SSxk-342" edge="1">
          <mxGeometry relative="1" as="geometry" />
        </mxCell>
        <mxCell id="f973rvLhNH8OjaS4SSxk-341" value="_ProcessOneOpt" style="rounded=0;whiteSpace=wrap;html=1;sketch=0;fontColor=#1D3557;strokeColor=#457B9D;fillColor=#A8DADC;" parent="WIyWlLk6GJQsqaUBKTNV-1" vertex="1">
          <mxGeometry x="2290" y="900" width="120" height="50" as="geometry" />
        </mxCell>
        <mxCell id="f973rvLhNH8OjaS4SSxk-345" value="" style="edgeStyle=orthogonalEdgeStyle;curved=0;rounded=1;sketch=0;orthogonalLoop=1;jettySize=auto;html=1;fontColor=#1D3557;strokeColor=#457B9D;fillColor=#A8DADC;" parent="WIyWlLk6GJQsqaUBKTNV-1" source="f973rvLhNH8OjaS4SSxk-342" target="f973rvLhNH8OjaS4SSxk-344" edge="1">
          <mxGeometry relative="1" as="geometry" />
        </mxCell>
        <mxCell id="f973rvLhNH8OjaS4SSxk-342" value="_ProcessAbort" style="rounded=0;whiteSpace=wrap;html=1;sketch=0;fontColor=#1D3557;strokeColor=#457B9D;fillColor=#A8DADC;" parent="WIyWlLk6GJQsqaUBKTNV-1" vertex="1">
          <mxGeometry x="2290" y="1030" width="120" height="50" as="geometry" />
        </mxCell>
        <mxCell id="f973rvLhNH8OjaS4SSxk-543" value="" style="edgeStyle=orthogonalEdgeStyle;curved=0;rounded=1;sketch=0;orthogonalLoop=1;jettySize=auto;html=1;fontColor=#1D3557;strokeColor=#457B9D;fillColor=#A8DADC;" parent="WIyWlLk6GJQsqaUBKTNV-1" source="f973rvLhNH8OjaS4SSxk-344" target="f973rvLhNH8OjaS4SSxk-542" edge="1">
          <mxGeometry relative="1" as="geometry" />
        </mxCell>
        <mxCell id="f973rvLhNH8OjaS4SSxk-344" value="_Report" style="rounded=0;whiteSpace=wrap;html=1;sketch=0;fontColor=#1D3557;strokeColor=#457B9D;fillColor=#A8DADC;" parent="WIyWlLk6GJQsqaUBKTNV-1" vertex="1">
          <mxGeometry x="2290" y="1160" width="120" height="50" as="geometry" />
        </mxCell>
        <mxCell id="f973rvLhNH8OjaS4SSxk-350" value="" style="edgeStyle=orthogonalEdgeStyle;curved=0;rounded=1;sketch=0;orthogonalLoop=1;jettySize=auto;html=1;fontColor=#1D3557;strokeColor=#457B9D;fillColor=#A8DADC;" parent="WIyWlLk6GJQsqaUBKTNV-1" source="f973rvLhNH8OjaS4SSxk-347" target="f973rvLhNH8OjaS4SSxk-349" edge="1">
          <mxGeometry relative="1" as="geometry" />
        </mxCell>
        <mxCell id="f973rvLhNH8OjaS4SSxk-347" value="XStramDownloaderProxy::&lt;br&gt;XGAME_DOWNLOAD_STATE_INITED" style="rounded=0;whiteSpace=wrap;html=1;sketch=0;fontColor=#1D3557;strokeColor=#457B9D;fillColor=#A8DADC;" parent="WIyWlLk6GJQsqaUBKTNV-1" vertex="1">
          <mxGeometry x="1312" y="910" width="290" height="50" as="geometry" />
        </mxCell>
        <mxCell id="f973rvLhNH8OjaS4SSxk-352" value="" style="edgeStyle=orthogonalEdgeStyle;curved=0;rounded=1;sketch=0;orthogonalLoop=1;jettySize=auto;html=1;fontColor=#1D3557;strokeColor=#457B9D;fillColor=#A8DADC;" parent="WIyWlLk6GJQsqaUBKTNV-1" source="f973rvLhNH8OjaS4SSxk-349" target="f973rvLhNH8OjaS4SSxk-351" edge="1">
          <mxGeometry relative="1" as="geometry" />
        </mxCell>
        <mxCell id="f973rvLhNH8OjaS4SSxk-349" value="_StartSD()" style="rounded=0;whiteSpace=wrap;html=1;sketch=0;fontColor=#1D3557;strokeColor=#457B9D;fillColor=#A8DADC;" parent="WIyWlLk6GJQsqaUBKTNV-1" vertex="1">
          <mxGeometry x="1312" y="1050" width="290" height="50" as="geometry" />
        </mxCell>
        <mxCell id="f973rvLhNH8OjaS4SSxk-354" value="" style="edgeStyle=orthogonalEdgeStyle;curved=0;rounded=1;sketch=0;orthogonalLoop=1;jettySize=auto;html=1;fontColor=#1D3557;strokeColor=#457B9D;fillColor=#A8DADC;" parent="WIyWlLk6GJQsqaUBKTNV-1" source="f973rvLhNH8OjaS4SSxk-351" target="f973rvLhNH8OjaS4SSxk-353" edge="1">
          <mxGeometry relative="1" as="geometry" />
        </mxCell>
        <mxCell id="f973rvLhNH8OjaS4SSxk-351" value="XStramDownloaderProxy::&lt;br&gt;XGAME_DOWNLOAD_STATE_DOWNLOADING" style="rounded=0;whiteSpace=wrap;html=1;sketch=0;fontColor=#1D3557;strokeColor=#457B9D;fillColor=#A8DADC;" parent="WIyWlLk6GJQsqaUBKTNV-1" vertex="1">
          <mxGeometry x="1312" y="1190" width="290" height="50" as="geometry" />
        </mxCell>
        <mxCell id="f973rvLhNH8OjaS4SSxk-358" value="" style="edgeStyle=orthogonalEdgeStyle;curved=0;rounded=1;sketch=0;orthogonalLoop=1;jettySize=auto;html=1;fontColor=#1D3557;strokeColor=#457B9D;fillColor=#A8DADC;" parent="WIyWlLk6GJQsqaUBKTNV-1" source="f973rvLhNH8OjaS4SSxk-353" target="f973rvLhNH8OjaS4SSxk-357" edge="1">
          <mxGeometry relative="1" as="geometry" />
        </mxCell>
        <mxCell id="f973rvLhNH8OjaS4SSxk-353" value="XStramDownloaderProxy::&lt;br&gt;XGAME_DOWNLOAD_STATE_FINISHED" style="rounded=0;whiteSpace=wrap;html=1;sketch=0;fontColor=#1D3557;strokeColor=#457B9D;fillColor=#A8DADC;" parent="WIyWlLk6GJQsqaUBKTNV-1" vertex="1">
          <mxGeometry x="1312" y="1330" width="290" height="50" as="geometry" />
        </mxCell>
        <mxCell id="f973rvLhNH8OjaS4SSxk-360" value="" style="edgeStyle=orthogonalEdgeStyle;curved=0;rounded=1;sketch=0;orthogonalLoop=1;jettySize=auto;html=1;fontColor=#1D3557;strokeColor=#457B9D;fillColor=#A8DADC;" parent="WIyWlLk6GJQsqaUBKTNV-1" source="f973rvLhNH8OjaS4SSxk-357" target="f973rvLhNH8OjaS4SSxk-359" edge="1">
          <mxGeometry relative="1" as="geometry" />
        </mxCell>
        <mxCell id="f973rvLhNH8OjaS4SSxk-357" value="PostStreamDownloaderOpened" style="rounded=0;whiteSpace=wrap;html=1;sketch=0;fontColor=#1D3557;strokeColor=#457B9D;fillColor=#A8DADC;" parent="WIyWlLk6GJQsqaUBKTNV-1" vertex="1">
          <mxGeometry x="942" y="1330" width="290" height="50" as="geometry" />
        </mxCell>
        <mxCell id="f973rvLhNH8OjaS4SSxk-364" style="edgeStyle=orthogonalEdgeStyle;curved=0;rounded=1;sketch=0;orthogonalLoop=1;jettySize=auto;html=1;exitX=0;exitY=0.5;exitDx=0;exitDy=0;entryX=1;entryY=0.5;entryDx=0;entryDy=0;fontColor=#1D3557;strokeColor=#457B9D;fillColor=#A8DADC;" parent="WIyWlLk6GJQsqaUBKTNV-1" source="f973rvLhNH8OjaS4SSxk-359" target="f973rvLhNH8OjaS4SSxk-362" edge="1">
          <mxGeometry relative="1" as="geometry" />
        </mxCell>
        <mxCell id="f973rvLhNH8OjaS4SSxk-518" value="OutputConf" style="edgeLabel;html=1;align=center;verticalAlign=middle;resizable=0;points=[];fontColor=#1D3557;" parent="f973rvLhNH8OjaS4SSxk-364" vertex="1" connectable="0">
          <mxGeometry x="0.0712" y="2" relative="1" as="geometry">
            <mxPoint as="offset" />
          </mxGeometry>
        </mxCell>
        <mxCell id="f973rvLhNH8OjaS4SSxk-359" value="XPakDeleteModule::&lt;br&gt;HandleStreamDownloaderOpened" style="rounded=0;whiteSpace=wrap;html=1;sketch=0;fontColor=#1D3557;strokeColor=#457B9D;fillColor=#A8DADC;" parent="WIyWlLk6GJQsqaUBKTNV-1" vertex="1">
          <mxGeometry x="942" y="1190" width="290" height="50" as="geometry" />
        </mxCell>
        <mxCell id="f973rvLhNH8OjaS4SSxk-367" value="" style="edgeStyle=orthogonalEdgeStyle;curved=0;rounded=1;sketch=0;orthogonalLoop=1;jettySize=auto;html=1;fontColor=#1D3557;strokeColor=#457B9D;fillColor=#A8DADC;" parent="WIyWlLk6GJQsqaUBKTNV-1" source="f973rvLhNH8OjaS4SSxk-362" target="f973rvLhNH8OjaS4SSxk-366" edge="1">
          <mxGeometry relative="1" as="geometry" />
        </mxCell>
        <mxCell id="f973rvLhNH8OjaS4SSxk-362" value="m_Conf.pPakManager-&amp;gt;DeleteRestPak" style="rounded=0;whiteSpace=wrap;html=1;sketch=0;fontColor=#1D3557;strokeColor=#457B9D;fillColor=#A8DADC;" parent="WIyWlLk6GJQsqaUBKTNV-1" vertex="1">
          <mxGeometry x="420" y="900" width="290" height="50" as="geometry" />
        </mxCell>
        <mxCell id="f973rvLhNH8OjaS4SSxk-369" value="" style="edgeStyle=orthogonalEdgeStyle;curved=0;rounded=1;sketch=0;orthogonalLoop=1;jettySize=auto;html=1;fontColor=#1D3557;strokeColor=#457B9D;fillColor=#A8DADC;" parent="WIyWlLk6GJQsqaUBKTNV-1" source="f973rvLhNH8OjaS4SSxk-366" target="f973rvLhNH8OjaS4SSxk-368" edge="1">
          <mxGeometry relative="1" as="geometry" />
        </mxCell>
        <mxCell id="f973rvLhNH8OjaS4SSxk-366" value="&lt;span&gt;XPakDelete::&lt;br&gt;XPAK_DELETER_STATE_DELETING&lt;br&gt;&lt;/span&gt;" style="rounded=0;whiteSpace=wrap;html=1;sketch=0;fontColor=#1D3557;strokeColor=#457B9D;fillColor=#A8DADC;" parent="WIyWlLk6GJQsqaUBKTNV-1" vertex="1">
          <mxGeometry x="420" y="1040" width="290" height="50" as="geometry" />
        </mxCell>
        <mxCell id="f973rvLhNH8OjaS4SSxk-368" value="&lt;span&gt;XPakDelete::&lt;br&gt;XPAK_DELETER_STATE_FINISHED&lt;br&gt;&lt;/span&gt;" style="rounded=0;whiteSpace=wrap;html=1;sketch=0;fontColor=#1D3557;strokeColor=#457B9D;fillColor=#A8DADC;" parent="WIyWlLk6GJQsqaUBKTNV-1" vertex="1">
          <mxGeometry x="420" y="1180" width="290" height="50" as="geometry" />
        </mxCell>
        <mxCell id="f973rvLhNH8OjaS4SSxk-501" style="edgeStyle=orthogonalEdgeStyle;curved=0;rounded=1;sketch=0;orthogonalLoop=1;jettySize=auto;html=1;exitX=1;exitY=0.5;exitDx=0;exitDy=0;entryX=0;entryY=0.5;entryDx=0;entryDy=0;fontColor=#1D3557;strokeColor=#457B9D;fillColor=#A8DADC;" parent="WIyWlLk6GJQsqaUBKTNV-1" source="f973rvLhNH8OjaS4SSxk-9" target="f973rvLhNH8OjaS4SSxk-205" edge="1">
          <mxGeometry relative="1" as="geometry">
            <Array as="points">
              <mxPoint x="470" y="-220" />
              <mxPoint x="470" y="-100" />
            </Array>
          </mxGeometry>
        </mxCell>
        <mxCell id="f973rvLhNH8OjaS4SSxk-502" value="" style="shape=table;html=1;whiteSpace=wrap;startSize=0;container=1;collapsible=0;childLayout=tableLayout;rounded=0;sketch=0;fontColor=#1D3557;strokeColor=#457B9D;fillColor=#A8DADC;" parent="WIyWlLk6GJQsqaUBKTNV-1" vertex="1">
          <mxGeometry x="770" y="-290" width="200" height="160" as="geometry" />
        </mxCell>
        <mxCell id="f973rvLhNH8OjaS4SSxk-515" style="shape=tableRow;horizontal=0;startSize=0;swimlaneHead=0;swimlaneBody=0;top=0;left=0;bottom=0;right=0;collapsible=0;dropTarget=0;fillColor=none;points=[[0,0.5],[1,0.5]];portConstraint=eastwest;rounded=0;sketch=0;fontColor=#1D3557;strokeColor=#457B9D;" parent="f973rvLhNH8OjaS4SSxk-502" vertex="1">
          <mxGeometry width="200" height="40" as="geometry" />
        </mxCell>
        <mxCell id="f973rvLhNH8OjaS4SSxk-516" value="XGAME_PAK_DELETER_CONFIG" style="shape=partialRectangle;html=1;whiteSpace=wrap;connectable=0;fillColor=#fff2cc;top=0;left=0;bottom=0;right=0;overflow=hidden;rounded=0;sketch=0;strokeColor=#d6b656;" parent="f973rvLhNH8OjaS4SSxk-515" vertex="1">
          <mxGeometry width="200" height="40" as="geometry">
            <mxRectangle width="200" height="40" as="alternateBounds" />
          </mxGeometry>
        </mxCell>
        <mxCell id="f973rvLhNH8OjaS4SSxk-503" value="" style="shape=tableRow;horizontal=0;startSize=0;swimlaneHead=0;swimlaneBody=0;top=0;left=0;bottom=0;right=0;collapsible=0;dropTarget=0;fillColor=none;points=[[0,0.5],[1,0.5]];portConstraint=eastwest;rounded=0;sketch=0;fontColor=#1D3557;strokeColor=#457B9D;" parent="f973rvLhNH8OjaS4SSxk-502" vertex="1">
          <mxGeometry y="40" width="200" height="40" as="geometry" />
        </mxCell>
        <mxCell id="f973rvLhNH8OjaS4SSxk-504" value="pPakManager" style="shape=partialRectangle;html=1;whiteSpace=wrap;connectable=0;fillColor=none;top=0;left=0;bottom=0;right=0;overflow=hidden;rounded=0;sketch=0;fontColor=#1D3557;strokeColor=#457B9D;" parent="f973rvLhNH8OjaS4SSxk-503" vertex="1">
          <mxGeometry width="200" height="40" as="geometry">
            <mxRectangle width="200" height="40" as="alternateBounds" />
          </mxGeometry>
        </mxCell>
        <mxCell id="f973rvLhNH8OjaS4SSxk-507" value="" style="shape=tableRow;horizontal=0;startSize=0;swimlaneHead=0;swimlaneBody=0;top=0;left=0;bottom=0;right=0;collapsible=0;dropTarget=0;fillColor=none;points=[[0,0.5],[1,0.5]];portConstraint=eastwest;rounded=0;sketch=0;fontColor=#1D3557;strokeColor=#457B9D;" parent="f973rvLhNH8OjaS4SSxk-502" vertex="1">
          <mxGeometry y="80" width="200" height="40" as="geometry" />
        </mxCell>
        <mxCell id="f973rvLhNH8OjaS4SSxk-508" value="listBasicPakID" style="shape=partialRectangle;html=1;whiteSpace=wrap;connectable=0;fillColor=none;top=0;left=0;bottom=0;right=0;overflow=hidden;rounded=0;sketch=0;fontColor=#1D3557;strokeColor=#457B9D;" parent="f973rvLhNH8OjaS4SSxk-507" vertex="1">
          <mxGeometry width="200" height="40" as="geometry">
            <mxRectangle width="200" height="40" as="alternateBounds" />
          </mxGeometry>
        </mxCell>
        <mxCell id="f973rvLhNH8OjaS4SSxk-511" value="" style="shape=tableRow;horizontal=0;startSize=0;swimlaneHead=0;swimlaneBody=0;top=0;left=0;bottom=0;right=0;collapsible=0;dropTarget=0;fillColor=none;points=[[0,0.5],[1,0.5]];portConstraint=eastwest;rounded=0;sketch=0;fontColor=#1D3557;strokeColor=#457B9D;" parent="f973rvLhNH8OjaS4SSxk-502" vertex="1">
          <mxGeometry y="120" width="200" height="40" as="geometry" />
        </mxCell>
        <mxCell id="f973rvLhNH8OjaS4SSxk-512" value="listSelectedPakID" style="shape=partialRectangle;html=1;whiteSpace=wrap;connectable=0;fillColor=none;top=0;left=0;bottom=0;right=0;overflow=hidden;rounded=0;sketch=0;fontColor=#1D3557;strokeColor=#457B9D;" parent="f973rvLhNH8OjaS4SSxk-511" vertex="1">
          <mxGeometry width="200" height="40" as="geometry">
            <mxRectangle width="200" height="40" as="alternateBounds" />
          </mxGeometry>
        </mxCell>
        <mxCell id="f973rvLhNH8OjaS4SSxk-517" style="edgeStyle=orthogonalEdgeStyle;curved=0;rounded=1;sketch=0;orthogonalLoop=1;jettySize=auto;html=1;exitX=1;exitY=0.5;exitDx=0;exitDy=0;entryX=0;entryY=0.5;entryDx=0;entryDy=0;fontColor=#1D3557;strokeColor=#457B9D;fillColor=#A8DADC;" parent="WIyWlLk6GJQsqaUBKTNV-1" source="f973rvLhNH8OjaS4SSxk-205" target="f973rvLhNH8OjaS4SSxk-515" edge="1">
          <mxGeometry relative="1" as="geometry" />
        </mxCell>
        <mxCell id="f973rvLhNH8OjaS4SSxk-520" value="******************&lt;br&gt;由于只有Module可以Handle。当它管理的线程需要别的模块的东西时，往往需要Post别的模块，等待别的模块的它管理的线程处理完，其Post将信息作为参数传递出去，Module再Handle，Handle时将信息传给自己管理的线程。自己的线程会不断轮询是否有信息更新。" style="rounded=0;whiteSpace=wrap;html=1;sketch=0;fontColor=#1D3557;strokeColor=#457B9D;fillColor=#A8DADC;" parent="WIyWlLk6GJQsqaUBKTNV-1" vertex="1">
          <mxGeometry x="-10" y="2510" width="390" height="110" as="geometry" />
        </mxCell>
        <mxCell id="f973rvLhNH8OjaS4SSxk-521" value="" style="shape=table;html=1;whiteSpace=wrap;startSize=0;container=1;collapsible=0;childLayout=tableLayout;rounded=0;sketch=0;fontColor=#1D3557;strokeColor=#457B9D;fillColor=#A8DADC;" parent="WIyWlLk6GJQsqaUBKTNV-1" vertex="1">
          <mxGeometry x="1602" y="90" width="150" height="80" as="geometry" />
        </mxCell>
        <mxCell id="f973rvLhNH8OjaS4SSxk-526" value="" style="shape=tableRow;horizontal=0;startSize=0;swimlaneHead=0;swimlaneBody=0;top=0;left=0;bottom=0;right=0;collapsible=0;dropTarget=0;fillColor=none;points=[[0,0.5],[1,0.5]];portConstraint=eastwest;rounded=0;sketch=0;fontColor=#1D3557;strokeColor=#457B9D;" parent="f973rvLhNH8OjaS4SSxk-521" vertex="1">
          <mxGeometry width="150" height="40" as="geometry" />
        </mxCell>
        <mxCell id="f973rvLhNH8OjaS4SSxk-527" value="strStreamDownloadCMD" style="shape=partialRectangle;html=1;whiteSpace=wrap;connectable=0;fillColor=none;top=0;left=0;bottom=0;right=0;overflow=hidden;rounded=0;sketch=0;fontColor=#1D3557;strokeColor=#457B9D;" parent="f973rvLhNH8OjaS4SSxk-526" vertex="1">
          <mxGeometry width="150" height="40" as="geometry">
            <mxRectangle width="150" height="40" as="alternateBounds" />
          </mxGeometry>
        </mxCell>
        <mxCell id="f973rvLhNH8OjaS4SSxk-530" value="" style="shape=tableRow;horizontal=0;startSize=0;swimlaneHead=0;swimlaneBody=0;top=0;left=0;bottom=0;right=0;collapsible=0;dropTarget=0;fillColor=none;points=[[0,0.5],[1,0.5]];portConstraint=eastwest;rounded=0;sketch=0;fontColor=#1D3557;strokeColor=#457B9D;" parent="f973rvLhNH8OjaS4SSxk-521" vertex="1">
          <mxGeometry y="40" width="150" height="40" as="geometry" />
        </mxCell>
        <mxCell id="f973rvLhNH8OjaS4SSxk-531" value="nManager" style="shape=partialRectangle;html=1;whiteSpace=wrap;connectable=0;fillColor=none;top=0;left=0;bottom=0;right=0;overflow=hidden;rounded=0;sketch=0;fontColor=#1D3557;strokeColor=#457B9D;" parent="f973rvLhNH8OjaS4SSxk-530" vertex="1">
          <mxGeometry width="150" height="40" as="geometry">
            <mxRectangle width="150" height="40" as="alternateBounds" />
          </mxGeometry>
        </mxCell>
        <mxCell id="f973rvLhNH8OjaS4SSxk-534" style="edgeStyle=orthogonalEdgeStyle;curved=0;rounded=1;sketch=0;orthogonalLoop=1;jettySize=auto;html=1;exitX=1;exitY=0.5;exitDx=0;exitDy=0;entryX=0;entryY=0.5;entryDx=0;entryDy=0;fontColor=#1D3557;strokeColor=#457B9D;fillColor=#A8DADC;" parent="WIyWlLk6GJQsqaUBKTNV-1" source="f973rvLhNH8OjaS4SSxk-114" target="f973rvLhNH8OjaS4SSxk-526" edge="1">
          <mxGeometry relative="1" as="geometry" />
        </mxCell>
        <mxCell id="f973rvLhNH8OjaS4SSxk-545" style="edgeStyle=orthogonalEdgeStyle;curved=0;rounded=1;sketch=0;orthogonalLoop=1;jettySize=auto;html=1;exitX=0;exitY=0.5;exitDx=0;exitDy=0;entryX=0.5;entryY=1;entryDx=0;entryDy=0;fontColor=#1D3557;strokeColor=#457B9D;fillColor=#A8DADC;" parent="WIyWlLk6GJQsqaUBKTNV-1" source="f973rvLhNH8OjaS4SSxk-542" target="f973rvLhNH8OjaS4SSxk-544" edge="1">
          <mxGeometry relative="1" as="geometry" />
        </mxCell>
        <mxCell id="f973rvLhNH8OjaS4SSxk-542" value="nFlag" style="rhombus;whiteSpace=wrap;html=1;fillColor=#A8DADC;strokeColor=#457B9D;fontColor=#1D3557;rounded=0;sketch=0;" parent="WIyWlLk6GJQsqaUBKTNV-1" vertex="1">
          <mxGeometry x="2310" y="1275" width="80" height="80" as="geometry" />
        </mxCell>
        <mxCell id="f973rvLhNH8OjaS4SSxk-547" value="" style="edgeStyle=orthogonalEdgeStyle;curved=0;rounded=1;sketch=0;orthogonalLoop=1;jettySize=auto;html=1;fontColor=#1D3557;strokeColor=#457B9D;fillColor=#A8DADC;" parent="WIyWlLk6GJQsqaUBKTNV-1" source="f973rvLhNH8OjaS4SSxk-544" target="f973rvLhNH8OjaS4SSxk-546" edge="1">
          <mxGeometry relative="1" as="geometry" />
        </mxCell>
        <mxCell id="f973rvLhNH8OjaS4SSxk-544" value="XFileSystemModule::&lt;br&gt;PostFileSystemOpened" style="rounded=0;whiteSpace=wrap;html=1;sketch=0;fontColor=#1D3557;strokeColor=#457B9D;fillColor=#A8DADC;" parent="WIyWlLk6GJQsqaUBKTNV-1" vertex="1">
          <mxGeometry x="2010" y="1160" width="230" height="60" as="geometry" />
        </mxCell>
        <mxCell id="f973rvLhNH8OjaS4SSxk-548" style="edgeStyle=orthogonalEdgeStyle;curved=0;rounded=1;sketch=0;orthogonalLoop=1;jettySize=auto;html=1;exitX=0.5;exitY=0;exitDx=0;exitDy=0;entryX=1;entryY=0.5;entryDx=0;entryDy=0;fontColor=#1D3557;strokeColor=#457B9D;fillColor=#A8DADC;" parent="WIyWlLk6GJQsqaUBKTNV-1" source="f973rvLhNH8OjaS4SSxk-546" target="f973rvLhNH8OjaS4SSxk-347" edge="1">
          <mxGeometry relative="1" as="geometry" />
        </mxCell>
        <mxCell id="f973rvLhNH8OjaS4SSxk-546" value="XStreamDownloaderModule::&lt;br&gt;HandleFileSystemOpened" style="rounded=0;whiteSpace=wrap;html=1;sketch=0;fontColor=#1D3557;strokeColor=#457B9D;fillColor=#A8DADC;" parent="WIyWlLk6GJQsqaUBKTNV-1" vertex="1">
          <mxGeometry x="2010" y="1020" width="230" height="60" as="geometry" />
        </mxCell>
        <mxCell id="NihhIV8qFMOey9AjhfD8-0" value="" style="shape=table;html=1;whiteSpace=wrap;startSize=0;container=1;collapsible=0;childLayout=tableLayout;rounded=0;sketch=0;fontColor=#1D3557;strokeColor=#457B9D;fillColor=#A8DADC;" vertex="1" parent="WIyWlLk6GJQsqaUBKTNV-1">
          <mxGeometry x="60" y="110" width="150" height="320" as="geometry" />
        </mxCell>
        <mxCell id="NihhIV8qFMOey9AjhfD8-1" value="" style="shape=tableRow;horizontal=0;startSize=0;swimlaneHead=0;swimlaneBody=0;top=0;left=0;bottom=0;right=0;collapsible=0;dropTarget=0;fillColor=none;points=[[0,0.5],[1,0.5]];portConstraint=eastwest;rounded=0;sketch=0;fontColor=#1D3557;strokeColor=#457B9D;" vertex="1" parent="NihhIV8qFMOey9AjhfD8-0">
          <mxGeometry width="150" height="40" as="geometry" />
        </mxCell>
        <mxCell id="NihhIV8qFMOey9AjhfD8-2" value="XPakDownloadModule" style="shape=partialRectangle;html=1;whiteSpace=wrap;connectable=0;fillColor=#fff2cc;top=0;left=0;bottom=0;right=0;overflow=hidden;rounded=0;sketch=0;strokeColor=#d6b656;" vertex="1" parent="NihhIV8qFMOey9AjhfD8-1">
          <mxGeometry width="150" height="40" as="geometry">
            <mxRectangle width="150" height="40" as="alternateBounds" />
          </mxGeometry>
        </mxCell>
        <mxCell id="NihhIV8qFMOey9AjhfD8-5" value="" style="shape=tableRow;horizontal=0;startSize=0;swimlaneHead=0;swimlaneBody=0;top=0;left=0;bottom=0;right=0;collapsible=0;dropTarget=0;fillColor=none;points=[[0,0.5],[1,0.5]];portConstraint=eastwest;rounded=0;sketch=0;fontColor=#1D3557;strokeColor=#457B9D;" vertex="1" parent="NihhIV8qFMOey9AjhfD8-0">
          <mxGeometry y="40" width="150" height="40" as="geometry" />
        </mxCell>
        <mxCell id="NihhIV8qFMOey9AjhfD8-6" value="m_bReport" style="shape=partialRectangle;html=1;whiteSpace=wrap;connectable=0;fillColor=none;top=0;left=0;bottom=0;right=0;overflow=hidden;rounded=0;sketch=0;fontColor=#1D3557;strokeColor=#457B9D;" vertex="1" parent="NihhIV8qFMOey9AjhfD8-5">
          <mxGeometry width="150" height="40" as="geometry">
            <mxRectangle width="150" height="40" as="alternateBounds" />
          </mxGeometry>
        </mxCell>
        <mxCell id="NihhIV8qFMOey9AjhfD8-9" value="" style="shape=tableRow;horizontal=0;startSize=0;swimlaneHead=0;swimlaneBody=0;top=0;left=0;bottom=0;right=0;collapsible=0;dropTarget=0;fillColor=none;points=[[0,0.5],[1,0.5]];portConstraint=eastwest;rounded=0;sketch=0;fontColor=#1D3557;strokeColor=#457B9D;" vertex="1" parent="NihhIV8qFMOey9AjhfD8-0">
          <mxGeometry y="80" width="150" height="40" as="geometry" />
        </mxCell>
        <mxCell id="NihhIV8qFMOey9AjhfD8-10" value="m_bReport" style="shape=partialRectangle;html=1;whiteSpace=wrap;connectable=0;fillColor=none;top=0;left=0;bottom=0;right=0;overflow=hidden;rounded=0;sketch=0;fontColor=#1D3557;strokeColor=#457B9D;" vertex="1" parent="NihhIV8qFMOey9AjhfD8-9">
          <mxGeometry width="150" height="40" as="geometry">
            <mxRectangle width="150" height="40" as="alternateBounds" />
          </mxGeometry>
        </mxCell>
        <mxCell id="NihhIV8qFMOey9AjhfD8-13" style="shape=tableRow;horizontal=0;startSize=0;swimlaneHead=0;swimlaneBody=0;top=0;left=0;bottom=0;right=0;collapsible=0;dropTarget=0;fillColor=none;points=[[0,0.5],[1,0.5]];portConstraint=eastwest;rounded=0;sketch=0;fontColor=#1D3557;strokeColor=#457B9D;" vertex="1" parent="NihhIV8qFMOey9AjhfD8-0">
          <mxGeometry y="120" width="150" height="40" as="geometry" />
        </mxCell>
        <mxCell id="NihhIV8qFMOey9AjhfD8-14" value="m_eStreamError" style="shape=partialRectangle;html=1;whiteSpace=wrap;connectable=0;fillColor=none;top=0;left=0;bottom=0;right=0;overflow=hidden;rounded=0;sketch=0;fontColor=#1D3557;strokeColor=#457B9D;" vertex="1" parent="NihhIV8qFMOey9AjhfD8-13">
          <mxGeometry width="150" height="40" as="geometry">
            <mxRectangle width="150" height="40" as="alternateBounds" />
          </mxGeometry>
        </mxCell>
        <mxCell id="NihhIV8qFMOey9AjhfD8-15" style="shape=tableRow;horizontal=0;startSize=0;swimlaneHead=0;swimlaneBody=0;top=0;left=0;bottom=0;right=0;collapsible=0;dropTarget=0;fillColor=none;points=[[0,0.5],[1,0.5]];portConstraint=eastwest;rounded=0;sketch=0;fontColor=#1D3557;strokeColor=#457B9D;" vertex="1" parent="NihhIV8qFMOey9AjhfD8-0">
          <mxGeometry y="160" width="150" height="40" as="geometry" />
        </mxCell>
        <mxCell id="NihhIV8qFMOey9AjhfD8-16" value="m_AppCode" style="shape=partialRectangle;html=1;whiteSpace=wrap;connectable=0;fillColor=none;top=0;left=0;bottom=0;right=0;overflow=hidden;rounded=0;sketch=0;fontColor=#1D3557;strokeColor=#457B9D;" vertex="1" parent="NihhIV8qFMOey9AjhfD8-15">
          <mxGeometry width="150" height="40" as="geometry">
            <mxRectangle width="150" height="40" as="alternateBounds" />
          </mxGeometry>
        </mxCell>
        <mxCell id="NihhIV8qFMOey9AjhfD8-17" style="shape=tableRow;horizontal=0;startSize=0;swimlaneHead=0;swimlaneBody=0;top=0;left=0;bottom=0;right=0;collapsible=0;dropTarget=0;fillColor=none;points=[[0,0.5],[1,0.5]];portConstraint=eastwest;rounded=0;sketch=0;fontColor=#1D3557;strokeColor=#457B9D;" vertex="1" parent="NihhIV8qFMOey9AjhfD8-0">
          <mxGeometry y="200" width="150" height="40" as="geometry" />
        </mxCell>
        <mxCell id="NihhIV8qFMOey9AjhfD8-18" value="m_DownloadConf" style="shape=partialRectangle;html=1;whiteSpace=wrap;connectable=0;fillColor=none;top=0;left=0;bottom=0;right=0;overflow=hidden;rounded=0;sketch=0;fontColor=#1D3557;strokeColor=#457B9D;" vertex="1" parent="NihhIV8qFMOey9AjhfD8-17">
          <mxGeometry width="150" height="40" as="geometry">
            <mxRectangle width="150" height="40" as="alternateBounds" />
          </mxGeometry>
        </mxCell>
        <mxCell id="NihhIV8qFMOey9AjhfD8-19" style="shape=tableRow;horizontal=0;startSize=0;swimlaneHead=0;swimlaneBody=0;top=0;left=0;bottom=0;right=0;collapsible=0;dropTarget=0;fillColor=none;points=[[0,0.5],[1,0.5]];portConstraint=eastwest;rounded=0;sketch=0;fontColor=#1D3557;strokeColor=#457B9D;" vertex="1" parent="NihhIV8qFMOey9AjhfD8-0">
          <mxGeometry y="240" width="150" height="40" as="geometry" />
        </mxCell>
        <mxCell id="NihhIV8qFMOey9AjhfD8-20" value="m_pPakDownloader" style="shape=partialRectangle;html=1;whiteSpace=wrap;connectable=0;fillColor=none;top=0;left=0;bottom=0;right=0;overflow=hidden;rounded=0;sketch=0;fontColor=#1D3557;strokeColor=#457B9D;" vertex="1" parent="NihhIV8qFMOey9AjhfD8-19">
          <mxGeometry width="150" height="40" as="geometry">
            <mxRectangle width="150" height="40" as="alternateBounds" />
          </mxGeometry>
        </mxCell>
        <mxCell id="NihhIV8qFMOey9AjhfD8-21" style="shape=tableRow;horizontal=0;startSize=0;swimlaneHead=0;swimlaneBody=0;top=0;left=0;bottom=0;right=0;collapsible=0;dropTarget=0;fillColor=none;points=[[0,0.5],[1,0.5]];portConstraint=eastwest;rounded=0;sketch=0;fontColor=#1D3557;strokeColor=#457B9D;" vertex="1" parent="NihhIV8qFMOey9AjhfD8-0">
          <mxGeometry y="280" width="150" height="40" as="geometry" />
        </mxCell>
        <mxCell id="NihhIV8qFMOey9AjhfD8-22" value="m_pPakDownloadInput" style="shape=partialRectangle;html=1;whiteSpace=wrap;connectable=0;fillColor=none;top=0;left=0;bottom=0;right=0;overflow=hidden;rounded=0;sketch=0;fontColor=#1D3557;strokeColor=#457B9D;" vertex="1" parent="NihhIV8qFMOey9AjhfD8-21">
          <mxGeometry width="150" height="40" as="geometry">
            <mxRectangle width="150" height="40" as="alternateBounds" />
          </mxGeometry>
        </mxCell>
        <mxCell id="NihhIV8qFMOey9AjhfD8-25" value="" style="shape=table;html=1;whiteSpace=wrap;startSize=0;container=1;collapsible=0;childLayout=tableLayout;rounded=0;sketch=0;fontColor=#1D3557;strokeColor=#457B9D;fillColor=#A8DADC;" vertex="1" parent="WIyWlLk6GJQsqaUBKTNV-1">
          <mxGeometry x="310" y="120" width="120" height="240" as="geometry" />
        </mxCell>
        <mxCell id="NihhIV8qFMOey9AjhfD8-26" value="" style="shape=tableRow;horizontal=0;startSize=0;swimlaneHead=0;swimlaneBody=0;top=0;left=0;bottom=0;right=0;collapsible=0;dropTarget=0;fillColor=none;points=[[0,0.5],[1,0.5]];portConstraint=eastwest;rounded=0;sketch=0;fontColor=#1D3557;strokeColor=#457B9D;" vertex="1" parent="NihhIV8qFMOey9AjhfD8-25">
          <mxGeometry width="120" height="40" as="geometry" />
        </mxCell>
        <mxCell id="NihhIV8qFMOey9AjhfD8-28" value="XPakDownloader" style="shape=partialRectangle;html=1;whiteSpace=wrap;connectable=0;fillColor=#fff2cc;top=0;left=0;bottom=0;right=0;overflow=hidden;rounded=0;sketch=0;strokeColor=#d6b656;" vertex="1" parent="NihhIV8qFMOey9AjhfD8-26">
          <mxGeometry width="120" height="40" as="geometry">
            <mxRectangle width="120" height="40" as="alternateBounds" />
          </mxGeometry>
        </mxCell>
        <mxCell id="NihhIV8qFMOey9AjhfD8-30" value="" style="shape=tableRow;horizontal=0;startSize=0;swimlaneHead=0;swimlaneBody=0;top=0;left=0;bottom=0;right=0;collapsible=0;dropTarget=0;fillColor=none;points=[[0,0.5],[1,0.5]];portConstraint=eastwest;rounded=0;sketch=0;fontColor=#1D3557;strokeColor=#457B9D;" vertex="1" parent="NihhIV8qFMOey9AjhfD8-25">
          <mxGeometry y="40" width="120" height="40" as="geometry" />
        </mxCell>
        <mxCell id="NihhIV8qFMOey9AjhfD8-32" value="m_pInput" style="shape=partialRectangle;html=1;whiteSpace=wrap;connectable=0;fillColor=none;top=0;left=0;bottom=0;right=0;overflow=hidden;rounded=0;sketch=0;fontColor=#1D3557;strokeColor=#457B9D;" vertex="1" parent="NihhIV8qFMOey9AjhfD8-30">
          <mxGeometry width="120" height="40" as="geometry">
            <mxRectangle width="120" height="40" as="alternateBounds" />
          </mxGeometry>
        </mxCell>
        <mxCell id="NihhIV8qFMOey9AjhfD8-34" value="" style="shape=tableRow;horizontal=0;startSize=0;swimlaneHead=0;swimlaneBody=0;top=0;left=0;bottom=0;right=0;collapsible=0;dropTarget=0;fillColor=none;points=[[0,0.5],[1,0.5]];portConstraint=eastwest;rounded=0;sketch=0;fontColor=#1D3557;strokeColor=#457B9D;" vertex="1" parent="NihhIV8qFMOey9AjhfD8-25">
          <mxGeometry y="80" width="120" height="40" as="geometry" />
        </mxCell>
        <mxCell id="NihhIV8qFMOey9AjhfD8-36" value="m_Conf" style="shape=partialRectangle;html=1;whiteSpace=wrap;connectable=0;fillColor=none;top=0;left=0;bottom=0;right=0;overflow=hidden;rounded=0;sketch=0;fontColor=#1D3557;strokeColor=#457B9D;" vertex="1" parent="NihhIV8qFMOey9AjhfD8-34">
          <mxGeometry width="120" height="40" as="geometry">
            <mxRectangle width="120" height="40" as="alternateBounds" />
          </mxGeometry>
        </mxCell>
        <mxCell id="NihhIV8qFMOey9AjhfD8-38" style="shape=tableRow;horizontal=0;startSize=0;swimlaneHead=0;swimlaneBody=0;top=0;left=0;bottom=0;right=0;collapsible=0;dropTarget=0;fillColor=none;points=[[0,0.5],[1,0.5]];portConstraint=eastwest;rounded=0;sketch=0;fontColor=#1D3557;strokeColor=#457B9D;" vertex="1" parent="NihhIV8qFMOey9AjhfD8-25">
          <mxGeometry y="120" width="120" height="40" as="geometry" />
        </mxCell>
        <mxCell id="NihhIV8qFMOey9AjhfD8-39" value="m_eLastErrCode" style="shape=partialRectangle;html=1;whiteSpace=wrap;connectable=0;fillColor=none;top=0;left=0;bottom=0;right=0;overflow=hidden;rounded=0;sketch=0;fontColor=#1D3557;strokeColor=#457B9D;" vertex="1" parent="NihhIV8qFMOey9AjhfD8-38">
          <mxGeometry width="120" height="40" as="geometry">
            <mxRectangle width="120" height="40" as="alternateBounds" />
          </mxGeometry>
        </mxCell>
        <mxCell id="NihhIV8qFMOey9AjhfD8-40" style="shape=tableRow;horizontal=0;startSize=0;swimlaneHead=0;swimlaneBody=0;top=0;left=0;bottom=0;right=0;collapsible=0;dropTarget=0;fillColor=none;points=[[0,0.5],[1,0.5]];portConstraint=eastwest;rounded=0;sketch=0;fontColor=#1D3557;strokeColor=#457B9D;" vertex="1" parent="NihhIV8qFMOey9AjhfD8-25">
          <mxGeometry y="160" width="120" height="40" as="geometry" />
        </mxCell>
        <mxCell id="NihhIV8qFMOey9AjhfD8-41" value="m_Info" style="shape=partialRectangle;html=1;whiteSpace=wrap;connectable=0;fillColor=none;top=0;left=0;bottom=0;right=0;overflow=hidden;rounded=0;sketch=0;fontColor=#1D3557;strokeColor=#457B9D;" vertex="1" parent="NihhIV8qFMOey9AjhfD8-40">
          <mxGeometry width="120" height="40" as="geometry">
            <mxRectangle width="120" height="40" as="alternateBounds" />
          </mxGeometry>
        </mxCell>
        <mxCell id="NihhIV8qFMOey9AjhfD8-42" style="shape=tableRow;horizontal=0;startSize=0;swimlaneHead=0;swimlaneBody=0;top=0;left=0;bottom=0;right=0;collapsible=0;dropTarget=0;fillColor=none;points=[[0,0.5],[1,0.5]];portConstraint=eastwest;rounded=0;sketch=0;fontColor=#1D3557;strokeColor=#457B9D;" vertex="1" parent="NihhIV8qFMOey9AjhfD8-25">
          <mxGeometry y="200" width="120" height="40" as="geometry" />
        </mxCell>
        <mxCell id="NihhIV8qFMOey9AjhfD8-43" value="m_eState" style="shape=partialRectangle;html=1;whiteSpace=wrap;connectable=0;fillColor=none;top=0;left=0;bottom=0;right=0;overflow=hidden;rounded=0;sketch=0;fontColor=#1D3557;strokeColor=#457B9D;" vertex="1" parent="NihhIV8qFMOey9AjhfD8-42">
          <mxGeometry width="120" height="40" as="geometry">
            <mxRectangle width="120" height="40" as="alternateBounds" />
          </mxGeometry>
        </mxCell>
        <mxCell id="NihhIV8qFMOey9AjhfD8-46" style="edgeStyle=orthogonalEdgeStyle;curved=0;rounded=1;sketch=0;orthogonalLoop=1;jettySize=auto;html=1;exitX=1;exitY=0.5;exitDx=0;exitDy=0;entryX=0;entryY=0.5;entryDx=0;entryDy=0;fontColor=#1D3557;strokeColor=#457B9D;fillColor=#A8DADC;" edge="1" parent="WIyWlLk6GJQsqaUBKTNV-1" source="NihhIV8qFMOey9AjhfD8-19" target="NihhIV8qFMOey9AjhfD8-26">
          <mxGeometry relative="1" as="geometry" />
        </mxCell>
        <mxCell id="NihhIV8qFMOey9AjhfD8-47" value="" style="shape=table;html=1;whiteSpace=wrap;startSize=0;container=1;collapsible=0;childLayout=tableLayout;rounded=0;sketch=0;fontColor=#1D3557;strokeColor=#457B9D;fillColor=#A8DADC;" vertex="1" parent="WIyWlLk6GJQsqaUBKTNV-1">
          <mxGeometry x="530" y="120" width="180" height="280" as="geometry" />
        </mxCell>
        <mxCell id="NihhIV8qFMOey9AjhfD8-48" value="" style="shape=tableRow;horizontal=0;startSize=0;swimlaneHead=0;swimlaneBody=0;top=0;left=0;bottom=0;right=0;collapsible=0;dropTarget=0;fillColor=none;points=[[0,0.5],[1,0.5]];portConstraint=eastwest;rounded=0;sketch=0;fontColor=#1D3557;strokeColor=#457B9D;" vertex="1" parent="NihhIV8qFMOey9AjhfD8-47">
          <mxGeometry width="180" height="40" as="geometry" />
        </mxCell>
        <mxCell id="NihhIV8qFMOey9AjhfD8-49" value="XPAK_DOWNLOADER_INPUT" style="shape=partialRectangle;html=1;whiteSpace=wrap;connectable=0;fillColor=#fff2cc;top=0;left=0;bottom=0;right=0;overflow=hidden;rounded=0;sketch=0;strokeColor=#d6b656;" vertex="1" parent="NihhIV8qFMOey9AjhfD8-48">
          <mxGeometry width="180" height="40" as="geometry">
            <mxRectangle width="180" height="40" as="alternateBounds" />
          </mxGeometry>
        </mxCell>
        <mxCell id="NihhIV8qFMOey9AjhfD8-52" value="" style="shape=tableRow;horizontal=0;startSize=0;swimlaneHead=0;swimlaneBody=0;top=0;left=0;bottom=0;right=0;collapsible=0;dropTarget=0;fillColor=none;points=[[0,0.5],[1,0.5]];portConstraint=eastwest;rounded=0;sketch=0;fontColor=#1D3557;strokeColor=#457B9D;" vertex="1" parent="NihhIV8qFMOey9AjhfD8-47">
          <mxGeometry y="40" width="180" height="40" as="geometry" />
        </mxCell>
        <mxCell id="NihhIV8qFMOey9AjhfD8-53" value="AppCode" style="shape=partialRectangle;html=1;whiteSpace=wrap;connectable=0;fillColor=none;top=0;left=0;bottom=0;right=0;overflow=hidden;rounded=0;sketch=0;fontColor=#1D3557;strokeColor=#457B9D;" vertex="1" parent="NihhIV8qFMOey9AjhfD8-52">
          <mxGeometry width="180" height="40" as="geometry">
            <mxRectangle width="180" height="40" as="alternateBounds" />
          </mxGeometry>
        </mxCell>
        <mxCell id="NihhIV8qFMOey9AjhfD8-56" value="" style="shape=tableRow;horizontal=0;startSize=0;swimlaneHead=0;swimlaneBody=0;top=0;left=0;bottom=0;right=0;collapsible=0;dropTarget=0;fillColor=none;points=[[0,0.5],[1,0.5]];portConstraint=eastwest;rounded=0;sketch=0;fontColor=#1D3557;strokeColor=#457B9D;" vertex="1" parent="NihhIV8qFMOey9AjhfD8-47">
          <mxGeometry y="80" width="180" height="40" as="geometry" />
        </mxCell>
        <mxCell id="NihhIV8qFMOey9AjhfD8-57" value="StreamConf" style="shape=partialRectangle;html=1;whiteSpace=wrap;connectable=0;fillColor=none;top=0;left=0;bottom=0;right=0;overflow=hidden;rounded=0;sketch=0;fontColor=#1D3557;strokeColor=#457B9D;" vertex="1" parent="NihhIV8qFMOey9AjhfD8-56">
          <mxGeometry width="180" height="40" as="geometry">
            <mxRectangle width="180" height="40" as="alternateBounds" />
          </mxGeometry>
        </mxCell>
        <mxCell id="NihhIV8qFMOey9AjhfD8-60" style="shape=tableRow;horizontal=0;startSize=0;swimlaneHead=0;swimlaneBody=0;top=0;left=0;bottom=0;right=0;collapsible=0;dropTarget=0;fillColor=none;points=[[0,0.5],[1,0.5]];portConstraint=eastwest;rounded=0;sketch=0;fontColor=#1D3557;strokeColor=#457B9D;" vertex="1" parent="NihhIV8qFMOey9AjhfD8-47">
          <mxGeometry y="120" width="180" height="40" as="geometry" />
        </mxCell>
        <mxCell id="NihhIV8qFMOey9AjhfD8-61" value="MuxInput" style="shape=partialRectangle;html=1;whiteSpace=wrap;connectable=0;fillColor=none;top=0;left=0;bottom=0;right=0;overflow=hidden;rounded=0;sketch=0;fontColor=#1D3557;strokeColor=#457B9D;" vertex="1" parent="NihhIV8qFMOey9AjhfD8-60">
          <mxGeometry width="180" height="40" as="geometry">
            <mxRectangle width="180" height="40" as="alternateBounds" />
          </mxGeometry>
        </mxCell>
        <mxCell id="NihhIV8qFMOey9AjhfD8-62" style="shape=tableRow;horizontal=0;startSize=0;swimlaneHead=0;swimlaneBody=0;top=0;left=0;bottom=0;right=0;collapsible=0;dropTarget=0;fillColor=none;points=[[0,0.5],[1,0.5]];portConstraint=eastwest;rounded=0;sketch=0;fontColor=#1D3557;strokeColor=#457B9D;" vertex="1" parent="NihhIV8qFMOey9AjhfD8-47">
          <mxGeometry y="160" width="180" height="40" as="geometry" />
        </mxCell>
        <mxCell id="NihhIV8qFMOey9AjhfD8-63" value="bInit" style="shape=partialRectangle;html=1;whiteSpace=wrap;connectable=0;fillColor=none;top=0;left=0;bottom=0;right=0;overflow=hidden;rounded=0;sketch=0;fontColor=#1D3557;strokeColor=#457B9D;" vertex="1" parent="NihhIV8qFMOey9AjhfD8-62">
          <mxGeometry width="180" height="40" as="geometry">
            <mxRectangle width="180" height="40" as="alternateBounds" />
          </mxGeometry>
        </mxCell>
        <mxCell id="NihhIV8qFMOey9AjhfD8-64" style="shape=tableRow;horizontal=0;startSize=0;swimlaneHead=0;swimlaneBody=0;top=0;left=0;bottom=0;right=0;collapsible=0;dropTarget=0;fillColor=none;points=[[0,0.5],[1,0.5]];portConstraint=eastwest;rounded=0;sketch=0;fontColor=#1D3557;strokeColor=#457B9D;" vertex="1" parent="NihhIV8qFMOey9AjhfD8-47">
          <mxGeometry y="200" width="180" height="40" as="geometry" />
        </mxCell>
        <mxCell id="NihhIV8qFMOey9AjhfD8-65" value="PakDownloadConf" style="shape=partialRectangle;html=1;whiteSpace=wrap;connectable=0;fillColor=none;top=0;left=0;bottom=0;right=0;overflow=hidden;rounded=0;sketch=0;fontColor=#1D3557;strokeColor=#457B9D;" vertex="1" parent="NihhIV8qFMOey9AjhfD8-64">
          <mxGeometry width="180" height="40" as="geometry">
            <mxRectangle width="180" height="40" as="alternateBounds" />
          </mxGeometry>
        </mxCell>
        <mxCell id="NihhIV8qFMOey9AjhfD8-66" style="shape=tableRow;horizontal=0;startSize=0;swimlaneHead=0;swimlaneBody=0;top=0;left=0;bottom=0;right=0;collapsible=0;dropTarget=0;fillColor=none;points=[[0,0.5],[1,0.5]];portConstraint=eastwest;rounded=0;sketch=0;fontColor=#1D3557;strokeColor=#457B9D;" vertex="1" parent="NihhIV8qFMOey9AjhfD8-47">
          <mxGeometry y="240" width="180" height="40" as="geometry" />
        </mxCell>
        <mxCell id="NihhIV8qFMOey9AjhfD8-67" value="bDelayAbortModule" style="shape=partialRectangle;html=1;whiteSpace=wrap;connectable=0;fillColor=none;top=0;left=0;bottom=0;right=0;overflow=hidden;rounded=0;sketch=0;fontColor=#1D3557;strokeColor=#457B9D;" vertex="1" parent="NihhIV8qFMOey9AjhfD8-66">
          <mxGeometry width="180" height="40" as="geometry">
            <mxRectangle width="180" height="40" as="alternateBounds" />
          </mxGeometry>
        </mxCell>
        <mxCell id="NihhIV8qFMOey9AjhfD8-68" style="edgeStyle=orthogonalEdgeStyle;curved=0;rounded=1;sketch=0;orthogonalLoop=1;jettySize=auto;html=1;exitX=1;exitY=0.5;exitDx=0;exitDy=0;entryX=0;entryY=0.5;entryDx=0;entryDy=0;fontColor=#1D3557;strokeColor=#457B9D;fillColor=#A8DADC;" edge="1" parent="WIyWlLk6GJQsqaUBKTNV-1" source="NihhIV8qFMOey9AjhfD8-30" target="NihhIV8qFMOey9AjhfD8-48">
          <mxGeometry relative="1" as="geometry" />
        </mxCell>
        <mxCell id="NihhIV8qFMOey9AjhfD8-69" style="edgeStyle=orthogonalEdgeStyle;curved=0;rounded=1;sketch=0;orthogonalLoop=1;jettySize=auto;html=1;exitX=1;exitY=0.5;exitDx=0;exitDy=0;entryX=0;entryY=0.5;entryDx=0;entryDy=0;fontColor=#1D3557;strokeColor=#457B9D;fillColor=#A8DADC;" edge="1" parent="WIyWlLk6GJQsqaUBKTNV-1" source="NihhIV8qFMOey9AjhfD8-21" target="NihhIV8qFMOey9AjhfD8-48">
          <mxGeometry relative="1" as="geometry">
            <Array as="points">
              <mxPoint x="480" y="410" />
              <mxPoint x="480" y="140" />
            </Array>
          </mxGeometry>
        </mxCell>
        <mxCell id="NihhIV8qFMOey9AjhfD8-70" style="edgeStyle=orthogonalEdgeStyle;curved=0;rounded=1;sketch=0;orthogonalLoop=1;jettySize=auto;html=1;exitX=1;exitY=0.5;exitDx=0;exitDy=0;entryX=0;entryY=0.5;entryDx=0;entryDy=0;fontColor=#1D3557;strokeColor=#457B9D;fillColor=#A8DADC;" edge="1" parent="WIyWlLk6GJQsqaUBKTNV-1" source="NihhIV8qFMOey9AjhfD8-34" target="NihhIV8qFMOey9AjhfD8-64">
          <mxGeometry relative="1" as="geometry">
            <Array as="points">
              <mxPoint x="500" y="220" />
              <mxPoint x="500" y="340" />
            </Array>
          </mxGeometry>
        </mxCell>
        <mxCell id="NihhIV8qFMOey9AjhfD8-71" value="" style="shape=table;html=1;whiteSpace=wrap;startSize=0;container=1;collapsible=0;childLayout=tableLayout;rounded=0;sketch=0;fontColor=#1D3557;strokeColor=#457B9D;fillColor=#A8DADC;" vertex="1" parent="WIyWlLk6GJQsqaUBKTNV-1">
          <mxGeometry x="780" y="120" width="240" height="120" as="geometry" />
        </mxCell>
        <mxCell id="NihhIV8qFMOey9AjhfD8-72" style="shape=tableRow;horizontal=0;startSize=0;swimlaneHead=0;swimlaneBody=0;top=0;left=0;bottom=0;right=0;collapsible=0;dropTarget=0;fillColor=none;points=[[0,0.5],[1,0.5]];portConstraint=eastwest;rounded=0;sketch=0;fontColor=#1D3557;strokeColor=#457B9D;" vertex="1" parent="NihhIV8qFMOey9AjhfD8-71">
          <mxGeometry width="240" height="40" as="geometry" />
        </mxCell>
        <mxCell id="NihhIV8qFMOey9AjhfD8-73" value="XGAME_PAK_DOWNLOADER_CONFIG" style="shape=partialRectangle;html=1;whiteSpace=wrap;connectable=0;fillColor=#fff2cc;top=0;left=0;bottom=0;right=0;overflow=hidden;rounded=0;sketch=0;strokeColor=#d6b656;" vertex="1" parent="NihhIV8qFMOey9AjhfD8-72">
          <mxGeometry width="240" height="40" as="geometry">
            <mxRectangle width="240" height="40" as="alternateBounds" />
          </mxGeometry>
        </mxCell>
        <mxCell id="NihhIV8qFMOey9AjhfD8-74" value="" style="shape=tableRow;horizontal=0;startSize=0;swimlaneHead=0;swimlaneBody=0;top=0;left=0;bottom=0;right=0;collapsible=0;dropTarget=0;fillColor=none;points=[[0,0.5],[1,0.5]];portConstraint=eastwest;rounded=0;sketch=0;fontColor=#1D3557;strokeColor=#457B9D;" vertex="1" parent="NihhIV8qFMOey9AjhfD8-71">
          <mxGeometry y="40" width="240" height="40" as="geometry" />
        </mxCell>
        <mxCell id="NihhIV8qFMOey9AjhfD8-75" value="pPakManager" style="shape=partialRectangle;html=1;whiteSpace=wrap;connectable=0;fillColor=none;top=0;left=0;bottom=0;right=0;overflow=hidden;rounded=0;sketch=0;fontColor=#1D3557;strokeColor=#457B9D;" vertex="1" parent="NihhIV8qFMOey9AjhfD8-74">
          <mxGeometry width="240" height="40" as="geometry">
            <mxRectangle width="240" height="40" as="alternateBounds" />
          </mxGeometry>
        </mxCell>
        <mxCell id="NihhIV8qFMOey9AjhfD8-76" value="" style="shape=tableRow;horizontal=0;startSize=0;swimlaneHead=0;swimlaneBody=0;top=0;left=0;bottom=0;right=0;collapsible=0;dropTarget=0;fillColor=none;points=[[0,0.5],[1,0.5]];portConstraint=eastwest;rounded=0;sketch=0;fontColor=#1D3557;strokeColor=#457B9D;" vertex="1" parent="NihhIV8qFMOey9AjhfD8-71">
          <mxGeometry y="80" width="240" height="40" as="geometry" />
        </mxCell>
        <mxCell id="NihhIV8qFMOey9AjhfD8-77" value="listPakID" style="shape=partialRectangle;html=1;whiteSpace=wrap;connectable=0;fillColor=none;top=0;left=0;bottom=0;right=0;overflow=hidden;rounded=0;sketch=0;fontColor=#1D3557;strokeColor=#457B9D;" vertex="1" parent="NihhIV8qFMOey9AjhfD8-76">
          <mxGeometry width="240" height="40" as="geometry">
            <mxRectangle width="240" height="40" as="alternateBounds" />
          </mxGeometry>
        </mxCell>
        <mxCell id="NihhIV8qFMOey9AjhfD8-80" style="edgeStyle=orthogonalEdgeStyle;curved=0;rounded=1;sketch=0;orthogonalLoop=1;jettySize=auto;html=1;exitX=1;exitY=0.5;exitDx=0;exitDy=0;entryX=0;entryY=0.5;entryDx=0;entryDy=0;fontColor=#1D3557;strokeColor=#457B9D;fillColor=#A8DADC;" edge="1" parent="WIyWlLk6GJQsqaUBKTNV-1" source="NihhIV8qFMOey9AjhfD8-64" target="NihhIV8qFMOey9AjhfD8-72">
          <mxGeometry relative="1" as="geometry" />
        </mxCell>
        <mxCell id="NihhIV8qFMOey9AjhfD8-84" value="" style="edgeStyle=orthogonalEdgeStyle;curved=0;rounded=1;sketch=0;orthogonalLoop=1;jettySize=auto;html=1;fontColor=#1D3557;strokeColor=#457B9D;fillColor=#A8DADC;" edge="1" parent="WIyWlLk6GJQsqaUBKTNV-1" source="NihhIV8qFMOey9AjhfD8-81" target="NihhIV8qFMOey9AjhfD8-83">
          <mxGeometry relative="1" as="geometry" />
        </mxCell>
        <mxCell id="NihhIV8qFMOey9AjhfD8-81" value="XPakDownloader::&lt;br&gt;XGAME_DOWNLOAD_STATE_UNINIT:" style="rounded=0;whiteSpace=wrap;html=1;sketch=0;fontColor=#1D3557;strokeColor=#457B9D;fillColor=#A8DADC;" vertex="1" parent="WIyWlLk6GJQsqaUBKTNV-1">
          <mxGeometry x="80" y="1540" width="250" height="60" as="geometry" />
        </mxCell>
        <mxCell id="NihhIV8qFMOey9AjhfD8-88" value="" style="edgeStyle=orthogonalEdgeStyle;curved=0;rounded=1;sketch=0;orthogonalLoop=1;jettySize=auto;html=1;fontColor=#1D3557;strokeColor=#457B9D;fillColor=#A8DADC;" edge="1" parent="WIyWlLk6GJQsqaUBKTNV-1" source="NihhIV8qFMOey9AjhfD8-83" target="NihhIV8qFMOey9AjhfD8-87">
          <mxGeometry relative="1" as="geometry" />
        </mxCell>
        <mxCell id="NihhIV8qFMOey9AjhfD8-83" value="PostOpenStreamDownloader" style="rounded=0;whiteSpace=wrap;html=1;sketch=0;fontColor=#1D3557;strokeColor=#457B9D;fillColor=#A8DADC;" vertex="1" parent="WIyWlLk6GJQsqaUBKTNV-1">
          <mxGeometry x="410" y="1540" width="250" height="60" as="geometry" />
        </mxCell>
        <mxCell id="NihhIV8qFMOey9AjhfD8-90" value="" style="edgeStyle=orthogonalEdgeStyle;curved=0;rounded=1;sketch=0;orthogonalLoop=1;jettySize=auto;html=1;fontColor=#1D3557;strokeColor=#457B9D;fillColor=#A8DADC;dashed=1;" edge="1" parent="WIyWlLk6GJQsqaUBKTNV-1" source="NihhIV8qFMOey9AjhfD8-87" target="NihhIV8qFMOey9AjhfD8-89">
          <mxGeometry relative="1" as="geometry" />
        </mxCell>
        <mxCell id="NihhIV8qFMOey9AjhfD8-87" value="&lt;span&gt;XPakDownloader::&lt;/span&gt;&lt;br&gt;&lt;span&gt;XGAME_DOWNLOAD_STATE_&lt;/span&gt;INITING" style="rounded=0;whiteSpace=wrap;html=1;sketch=0;fontColor=#1D3557;strokeColor=#457B9D;fillColor=#A8DADC;" vertex="1" parent="WIyWlLk6GJQsqaUBKTNV-1">
          <mxGeometry x="410" y="1680" width="250" height="60" as="geometry" />
        </mxCell>
        <mxCell id="NihhIV8qFMOey9AjhfD8-92" value="" style="edgeStyle=orthogonalEdgeStyle;curved=0;rounded=1;sketch=0;orthogonalLoop=1;jettySize=auto;html=1;fontColor=#1D3557;strokeColor=#457B9D;fillColor=#A8DADC;" edge="1" parent="WIyWlLk6GJQsqaUBKTNV-1" source="NihhIV8qFMOey9AjhfD8-89" target="NihhIV8qFMOey9AjhfD8-91">
          <mxGeometry relative="1" as="geometry" />
        </mxCell>
        <mxCell id="NihhIV8qFMOey9AjhfD8-89" value="m_Conf.pPakManager&lt;br&gt;-&amp;gt;&lt;br&gt;GetPakGroupSetRealTotalSize" style="rounded=0;whiteSpace=wrap;html=1;sketch=0;fontColor=#1D3557;strokeColor=#457B9D;fillColor=#A8DADC;" vertex="1" parent="WIyWlLk6GJQsqaUBKTNV-1">
          <mxGeometry x="410" y="1820" width="250" height="60" as="geometry" />
        </mxCell>
        <mxCell id="NihhIV8qFMOey9AjhfD8-94" value="" style="edgeStyle=orthogonalEdgeStyle;curved=0;rounded=1;sketch=0;orthogonalLoop=1;jettySize=auto;html=1;fontColor=#1D3557;strokeColor=#457B9D;fillColor=#A8DADC;" edge="1" parent="WIyWlLk6GJQsqaUBKTNV-1" source="NihhIV8qFMOey9AjhfD8-91" target="NihhIV8qFMOey9AjhfD8-93">
          <mxGeometry relative="1" as="geometry" />
        </mxCell>
        <mxCell id="NihhIV8qFMOey9AjhfD8-91" value="XPakDownloader::&lt;br&gt;XGAME_DOWNLOAD_STATE_INITED&lt;br&gt;m_Conf.pPakManager-&amp;gt;StartDownload" style="rounded=0;whiteSpace=wrap;html=1;sketch=0;fontColor=#1D3557;strokeColor=#457B9D;fillColor=#A8DADC;" vertex="1" parent="WIyWlLk6GJQsqaUBKTNV-1">
          <mxGeometry x="410" y="1960" width="250" height="60" as="geometry" />
        </mxCell>
        <mxCell id="NihhIV8qFMOey9AjhfD8-96" value="" style="edgeStyle=orthogonalEdgeStyle;curved=0;rounded=1;sketch=0;orthogonalLoop=1;jettySize=auto;html=1;fontColor=#1D3557;strokeColor=#457B9D;fillColor=#A8DADC;" edge="1" parent="WIyWlLk6GJQsqaUBKTNV-1" source="NihhIV8qFMOey9AjhfD8-93" target="NihhIV8qFMOey9AjhfD8-95">
          <mxGeometry relative="1" as="geometry" />
        </mxCell>
        <mxCell id="NihhIV8qFMOey9AjhfD8-93" value="XPakDownloader::&lt;br&gt;XGAME_DOWNLOAD_STATE_DOWNLOADING&lt;br&gt;_TickProgress()" style="rounded=0;whiteSpace=wrap;html=1;sketch=0;fontColor=#1D3557;strokeColor=#457B9D;fillColor=#A8DADC;" vertex="1" parent="WIyWlLk6GJQsqaUBKTNV-1">
          <mxGeometry x="400" y="2100" width="270" height="60" as="geometry" />
        </mxCell>
        <mxCell id="NihhIV8qFMOey9AjhfD8-95" value="XPakDownloader::&lt;br&gt;XGAME_DOWNLOAD_STATE_FINISHED" style="rounded=0;whiteSpace=wrap;html=1;sketch=0;fontColor=#1D3557;strokeColor=#457B9D;fillColor=#A8DADC;" vertex="1" parent="WIyWlLk6GJQsqaUBKTNV-1">
          <mxGeometry x="400" y="2240" width="270" height="60" as="geometry" />
        </mxCell>
        <mxCell id="NihhIV8qFMOey9AjhfD8-97" style="edgeStyle=orthogonalEdgeStyle;curved=0;rounded=1;sketch=0;orthogonalLoop=1;jettySize=auto;html=1;exitX=1;exitY=0.5;exitDx=0;exitDy=0;entryX=0;entryY=0.5;entryDx=0;entryDy=0;fontColor=#1D3557;strokeColor=#457B9D;fillColor=#A8DADC;" edge="1" parent="WIyWlLk6GJQsqaUBKTNV-1" source="f973rvLhNH8OjaS4SSxk-163" target="f973rvLhNH8OjaS4SSxk-237">
          <mxGeometry relative="1" as="geometry" />
        </mxCell>
        <mxCell id="NihhIV8qFMOey9AjhfD8-100" style="edgeStyle=orthogonalEdgeStyle;curved=0;rounded=1;sketch=0;orthogonalLoop=1;jettySize=auto;html=1;exitX=1;exitY=0.5;exitDx=0;exitDy=0;entryX=0;entryY=0.5;entryDx=0;entryDy=0;fontColor=#1D3557;strokeColor=#457B9D;fillColor=#A8DADC;" edge="1" parent="WIyWlLk6GJQsqaUBKTNV-1" source="f973rvLhNH8OjaS4SSxk-159" target="f973rvLhNH8OjaS4SSxk-260">
          <mxGeometry relative="1" as="geometry" />
        </mxCell>
        <mxCell id="NihhIV8qFMOey9AjhfD8-101" value="" style="shape=table;html=1;whiteSpace=wrap;startSize=0;container=1;collapsible=0;childLayout=tableLayout;rounded=0;sketch=0;fontColor=#1D3557;strokeColor=#457B9D;fillColor=#A8DADC;" vertex="1" parent="WIyWlLk6GJQsqaUBKTNV-1">
          <mxGeometry x="3040" y="40" width="150" height="400" as="geometry" />
        </mxCell>
        <mxCell id="NihhIV8qFMOey9AjhfD8-102" value="" style="shape=tableRow;horizontal=0;startSize=0;swimlaneHead=0;swimlaneBody=0;top=0;left=0;bottom=0;right=0;collapsible=0;dropTarget=0;fillColor=none;points=[[0,0.5],[1,0.5]];portConstraint=eastwest;rounded=0;sketch=0;fontColor=#1D3557;strokeColor=#457B9D;" vertex="1" parent="NihhIV8qFMOey9AjhfD8-101">
          <mxGeometry width="150" height="40" as="geometry" />
        </mxCell>
        <mxCell id="NihhIV8qFMOey9AjhfD8-103" value="XPakFileSystem" style="shape=partialRectangle;html=1;whiteSpace=wrap;connectable=0;fillColor=#fff2cc;top=0;left=0;bottom=0;right=0;overflow=hidden;rounded=0;sketch=0;strokeColor=#d6b656;" vertex="1" parent="NihhIV8qFMOey9AjhfD8-102">
          <mxGeometry width="150" height="40" as="geometry">
            <mxRectangle width="150" height="40" as="alternateBounds" />
          </mxGeometry>
        </mxCell>
        <mxCell id="NihhIV8qFMOey9AjhfD8-106" value="" style="shape=tableRow;horizontal=0;startSize=0;swimlaneHead=0;swimlaneBody=0;top=0;left=0;bottom=0;right=0;collapsible=0;dropTarget=0;fillColor=none;points=[[0,0.5],[1,0.5]];portConstraint=eastwest;rounded=0;sketch=0;fontColor=#1D3557;strokeColor=#457B9D;" vertex="1" parent="NihhIV8qFMOey9AjhfD8-101">
          <mxGeometry y="40" width="150" height="40" as="geometry" />
        </mxCell>
        <mxCell id="NihhIV8qFMOey9AjhfD8-107" value="m_LastConf" style="shape=partialRectangle;html=1;whiteSpace=wrap;connectable=0;fillColor=none;top=0;left=0;bottom=0;right=0;overflow=hidden;rounded=0;sketch=0;fontColor=#1D3557;strokeColor=#457B9D;" vertex="1" parent="NihhIV8qFMOey9AjhfD8-106">
          <mxGeometry width="150" height="40" as="geometry">
            <mxRectangle width="150" height="40" as="alternateBounds" />
          </mxGeometry>
        </mxCell>
        <mxCell id="NihhIV8qFMOey9AjhfD8-110" value="" style="shape=tableRow;horizontal=0;startSize=0;swimlaneHead=0;swimlaneBody=0;top=0;left=0;bottom=0;right=0;collapsible=0;dropTarget=0;fillColor=none;points=[[0,0.5],[1,0.5]];portConstraint=eastwest;rounded=0;sketch=0;fontColor=#1D3557;strokeColor=#457B9D;" vertex="1" parent="NihhIV8qFMOey9AjhfD8-101">
          <mxGeometry y="80" width="150" height="40" as="geometry" />
        </mxCell>
        <mxCell id="NihhIV8qFMOey9AjhfD8-111" value="m_Conf" style="shape=partialRectangle;html=1;whiteSpace=wrap;connectable=0;fillColor=none;top=0;left=0;bottom=0;right=0;overflow=hidden;rounded=0;sketch=0;fontColor=#1D3557;strokeColor=#457B9D;" vertex="1" parent="NihhIV8qFMOey9AjhfD8-110">
          <mxGeometry width="150" height="40" as="geometry">
            <mxRectangle width="150" height="40" as="alternateBounds" />
          </mxGeometry>
        </mxCell>
        <mxCell id="NihhIV8qFMOey9AjhfD8-114" style="shape=tableRow;horizontal=0;startSize=0;swimlaneHead=0;swimlaneBody=0;top=0;left=0;bottom=0;right=0;collapsible=0;dropTarget=0;fillColor=none;points=[[0,0.5],[1,0.5]];portConstraint=eastwest;rounded=0;sketch=0;fontColor=#1D3557;strokeColor=#457B9D;" vertex="1" parent="NihhIV8qFMOey9AjhfD8-101">
          <mxGeometry y="120" width="150" height="40" as="geometry" />
        </mxCell>
        <mxCell id="NihhIV8qFMOey9AjhfD8-115" value="m_StateMutex" style="shape=partialRectangle;html=1;whiteSpace=wrap;connectable=0;fillColor=none;top=0;left=0;bottom=0;right=0;overflow=hidden;rounded=0;sketch=0;fontColor=#1D3557;strokeColor=#457B9D;" vertex="1" parent="NihhIV8qFMOey9AjhfD8-114">
          <mxGeometry width="150" height="40" as="geometry">
            <mxRectangle width="150" height="40" as="alternateBounds" />
          </mxGeometry>
        </mxCell>
        <mxCell id="NihhIV8qFMOey9AjhfD8-116" style="shape=tableRow;horizontal=0;startSize=0;swimlaneHead=0;swimlaneBody=0;top=0;left=0;bottom=0;right=0;collapsible=0;dropTarget=0;fillColor=none;points=[[0,0.5],[1,0.5]];portConstraint=eastwest;rounded=0;sketch=0;fontColor=#1D3557;strokeColor=#457B9D;" vertex="1" parent="NihhIV8qFMOey9AjhfD8-101">
          <mxGeometry y="160" width="150" height="40" as="geometry" />
        </mxCell>
        <mxCell id="NihhIV8qFMOey9AjhfD8-117" value="m_nFlag" style="shape=partialRectangle;html=1;whiteSpace=wrap;connectable=0;fillColor=none;top=0;left=0;bottom=0;right=0;overflow=hidden;rounded=0;sketch=0;fontColor=#1D3557;strokeColor=#457B9D;" vertex="1" parent="NihhIV8qFMOey9AjhfD8-116">
          <mxGeometry width="150" height="40" as="geometry">
            <mxRectangle width="150" height="40" as="alternateBounds" />
          </mxGeometry>
        </mxCell>
        <mxCell id="NihhIV8qFMOey9AjhfD8-118" style="shape=tableRow;horizontal=0;startSize=0;swimlaneHead=0;swimlaneBody=0;top=0;left=0;bottom=0;right=0;collapsible=0;dropTarget=0;fillColor=none;points=[[0,0.5],[1,0.5]];portConstraint=eastwest;rounded=0;sketch=0;fontColor=#1D3557;strokeColor=#457B9D;" vertex="1" parent="NihhIV8qFMOey9AjhfD8-101">
          <mxGeometry y="200" width="150" height="40" as="geometry" />
        </mxCell>
        <mxCell id="NihhIV8qFMOey9AjhfD8-119" value="m_eError" style="shape=partialRectangle;html=1;whiteSpace=wrap;connectable=0;fillColor=none;top=0;left=0;bottom=0;right=0;overflow=hidden;rounded=0;sketch=0;fontColor=#1D3557;strokeColor=#457B9D;" vertex="1" parent="NihhIV8qFMOey9AjhfD8-118">
          <mxGeometry width="150" height="40" as="geometry">
            <mxRectangle width="150" height="40" as="alternateBounds" />
          </mxGeometry>
        </mxCell>
        <mxCell id="NihhIV8qFMOey9AjhfD8-120" style="shape=tableRow;horizontal=0;startSize=0;swimlaneHead=0;swimlaneBody=0;top=0;left=0;bottom=0;right=0;collapsible=0;dropTarget=0;fillColor=none;points=[[0,0.5],[1,0.5]];portConstraint=eastwest;rounded=0;sketch=0;fontColor=#1D3557;strokeColor=#457B9D;" vertex="1" parent="NihhIV8qFMOey9AjhfD8-101">
          <mxGeometry y="240" width="150" height="40" as="geometry" />
        </mxCell>
        <mxCell id="NihhIV8qFMOey9AjhfD8-121" value="m_nManager" style="shape=partialRectangle;html=1;whiteSpace=wrap;connectable=0;fillColor=none;top=0;left=0;bottom=0;right=0;overflow=hidden;rounded=0;sketch=0;fontColor=#1D3557;strokeColor=#457B9D;" vertex="1" parent="NihhIV8qFMOey9AjhfD8-120">
          <mxGeometry width="150" height="40" as="geometry">
            <mxRectangle width="150" height="40" as="alternateBounds" />
          </mxGeometry>
        </mxCell>
        <mxCell id="NihhIV8qFMOey9AjhfD8-122" style="shape=tableRow;horizontal=0;startSize=0;swimlaneHead=0;swimlaneBody=0;top=0;left=0;bottom=0;right=0;collapsible=0;dropTarget=0;fillColor=none;points=[[0,0.5],[1,0.5]];portConstraint=eastwest;rounded=0;sketch=0;fontColor=#1D3557;strokeColor=#457B9D;" vertex="1" parent="NihhIV8qFMOey9AjhfD8-101">
          <mxGeometry y="280" width="150" height="40" as="geometry" />
        </mxCell>
        <mxCell id="NihhIV8qFMOey9AjhfD8-123" value="m_FileReadConf" style="shape=partialRectangle;html=1;whiteSpace=wrap;connectable=0;fillColor=none;top=0;left=0;bottom=0;right=0;overflow=hidden;rounded=0;sketch=0;fontColor=#1D3557;strokeColor=#457B9D;" vertex="1" parent="NihhIV8qFMOey9AjhfD8-122">
          <mxGeometry width="150" height="40" as="geometry">
            <mxRectangle width="150" height="40" as="alternateBounds" />
          </mxGeometry>
        </mxCell>
        <mxCell id="NihhIV8qFMOey9AjhfD8-132" style="shape=tableRow;horizontal=0;startSize=0;swimlaneHead=0;swimlaneBody=0;top=0;left=0;bottom=0;right=0;collapsible=0;dropTarget=0;fillColor=none;points=[[0,0.5],[1,0.5]];portConstraint=eastwest;rounded=0;sketch=0;fontColor=#1D3557;strokeColor=#457B9D;" vertex="1" parent="NihhIV8qFMOey9AjhfD8-101">
          <mxGeometry y="320" width="150" height="40" as="geometry" />
        </mxCell>
        <mxCell id="NihhIV8qFMOey9AjhfD8-133" value="m_pPakManager" style="shape=partialRectangle;html=1;whiteSpace=wrap;connectable=0;fillColor=none;top=0;left=0;bottom=0;right=0;overflow=hidden;rounded=0;sketch=0;fontColor=#1D3557;strokeColor=#457B9D;" vertex="1" parent="NihhIV8qFMOey9AjhfD8-132">
          <mxGeometry width="150" height="40" as="geometry">
            <mxRectangle width="150" height="40" as="alternateBounds" />
          </mxGeometry>
        </mxCell>
        <mxCell id="NihhIV8qFMOey9AjhfD8-130" style="shape=tableRow;horizontal=0;startSize=0;swimlaneHead=0;swimlaneBody=0;top=0;left=0;bottom=0;right=0;collapsible=0;dropTarget=0;fillColor=none;points=[[0,0.5],[1,0.5]];portConstraint=eastwest;rounded=0;sketch=0;fontColor=#1D3557;strokeColor=#457B9D;" vertex="1" parent="NihhIV8qFMOey9AjhfD8-101">
          <mxGeometry y="360" width="150" height="40" as="geometry" />
        </mxCell>
        <mxCell id="NihhIV8qFMOey9AjhfD8-131" value="m_pPakGroupManager" style="shape=partialRectangle;html=1;whiteSpace=wrap;connectable=0;fillColor=none;top=0;left=0;bottom=0;right=0;overflow=hidden;rounded=0;sketch=0;fontColor=#1D3557;strokeColor=#457B9D;" vertex="1" parent="NihhIV8qFMOey9AjhfD8-130">
          <mxGeometry width="150" height="40" as="geometry">
            <mxRectangle width="150" height="40" as="alternateBounds" />
          </mxGeometry>
        </mxCell>
        <mxCell id="NihhIV8qFMOey9AjhfD8-124" style="edgeStyle=orthogonalEdgeStyle;curved=0;rounded=1;sketch=0;orthogonalLoop=1;jettySize=auto;html=1;exitX=1;exitY=0.5;exitDx=0;exitDy=0;entryX=0.005;entryY=0.066;entryDx=0;entryDy=0;entryPerimeter=0;fontColor=#1D3557;strokeColor=#457B9D;fillColor=#A8DADC;" edge="1" parent="WIyWlLk6GJQsqaUBKTNV-1" source="f973rvLhNH8OjaS4SSxk-283" target="NihhIV8qFMOey9AjhfD8-101">
          <mxGeometry relative="1" as="geometry" />
        </mxCell>
        <mxCell id="NihhIV8qFMOey9AjhfD8-135" value="" style="shape=table;html=1;whiteSpace=wrap;startSize=0;container=1;collapsible=0;childLayout=tableLayout;rounded=0;sketch=0;strokeColor=#d6b656;fillColor=#fff2cc;" vertex="1" parent="WIyWlLk6GJQsqaUBKTNV-1">
          <mxGeometry x="3280" y="40" width="120" height="40" as="geometry" />
        </mxCell>
        <mxCell id="NihhIV8qFMOey9AjhfD8-136" value="" style="shape=tableRow;horizontal=0;startSize=0;swimlaneHead=0;swimlaneBody=0;top=0;left=0;bottom=0;right=0;collapsible=0;dropTarget=0;fillColor=none;points=[[0,0.5],[1,0.5]];portConstraint=eastwest;rounded=0;sketch=0;fontColor=#1D3557;strokeColor=#457B9D;" vertex="1" parent="NihhIV8qFMOey9AjhfD8-135">
          <mxGeometry width="120" height="40" as="geometry" />
        </mxCell>
        <mxCell id="NihhIV8qFMOey9AjhfD8-137" value="XPakManager" style="shape=partialRectangle;html=1;whiteSpace=wrap;connectable=0;fillColor=none;top=0;left=0;bottom=0;right=0;overflow=hidden;rounded=0;sketch=0;fontColor=#1D3557;strokeColor=#457B9D;" vertex="1" parent="NihhIV8qFMOey9AjhfD8-136">
          <mxGeometry width="120" height="40" as="geometry">
            <mxRectangle width="120" height="40" as="alternateBounds" />
          </mxGeometry>
        </mxCell>
        <mxCell id="NihhIV8qFMOey9AjhfD8-153" style="edgeStyle=orthogonalEdgeStyle;curved=0;rounded=1;sketch=0;orthogonalLoop=1;jettySize=auto;html=1;exitX=1;exitY=0.5;exitDx=0;exitDy=0;fontColor=#1D3557;strokeColor=#457B9D;fillColor=#A8DADC;" edge="1" parent="WIyWlLk6GJQsqaUBKTNV-1" source="NihhIV8qFMOey9AjhfD8-132" target="NihhIV8qFMOey9AjhfD8-136">
          <mxGeometry relative="1" as="geometry" />
        </mxCell>
        <mxCell id="NihhIV8qFMOey9AjhfD8-154" value="" style="shape=table;html=1;whiteSpace=wrap;startSize=0;container=1;collapsible=0;childLayout=tableLayout;rounded=0;sketch=0;fontColor=#1D3557;strokeColor=#457B9D;fillColor=#A8DADC;" vertex="1" parent="WIyWlLk6GJQsqaUBKTNV-1">
          <mxGeometry x="3530" y="40" width="120" height="40" as="geometry" />
        </mxCell>
        <mxCell id="NihhIV8qFMOey9AjhfD8-163" value="" style="shape=tableRow;horizontal=0;startSize=0;swimlaneHead=0;swimlaneBody=0;top=0;left=0;bottom=0;right=0;collapsible=0;dropTarget=0;fillColor=none;points=[[0,0.5],[1,0.5]];portConstraint=eastwest;rounded=0;sketch=0;fontColor=#1D3557;strokeColor=#457B9D;" vertex="1" parent="NihhIV8qFMOey9AjhfD8-154">
          <mxGeometry width="120" height="40" as="geometry" />
        </mxCell>
        <mxCell id="NihhIV8qFMOey9AjhfD8-164" value="XPakGroupManager" style="shape=partialRectangle;html=1;whiteSpace=wrap;connectable=0;fillColor=#fff2cc;top=0;left=0;bottom=0;right=0;overflow=hidden;rounded=0;sketch=0;strokeColor=#d6b656;" vertex="1" parent="NihhIV8qFMOey9AjhfD8-163">
          <mxGeometry width="120" height="40" as="geometry">
            <mxRectangle width="120" height="40" as="alternateBounds" />
          </mxGeometry>
        </mxCell>
        <mxCell id="NihhIV8qFMOey9AjhfD8-167" style="edgeStyle=orthogonalEdgeStyle;curved=0;rounded=1;sketch=0;orthogonalLoop=1;jettySize=auto;html=1;exitX=1;exitY=0.5;exitDx=0;exitDy=0;entryX=0;entryY=0.5;entryDx=0;entryDy=0;fontColor=#1D3557;strokeColor=#457B9D;fillColor=#A8DADC;" edge="1" parent="WIyWlLk6GJQsqaUBKTNV-1" source="NihhIV8qFMOey9AjhfD8-130" target="NihhIV8qFMOey9AjhfD8-163">
          <mxGeometry relative="1" as="geometry">
            <Array as="points">
              <mxPoint x="3480" y="420" />
              <mxPoint x="3480" y="60" />
            </Array>
          </mxGeometry>
        </mxCell>
      </root>
    </mxGraphModel>
  </diagram>
</mxfile>
